<?xml version="1.0" encoding="utf-8"?>
<!-- Generator: Adobe Illustrator 15.0.0, SVG Export Plug-In . SVG Version: 6.00 Build 0)  -->
<!DOCTYPE svg PUBLIC "-//W3C//DTD SVG 1.1//EN" "http://www.w3.org/Graphics/SVG/1.1/DTD/svg11.dtd">
<svg version="1.1" id="Layer_1" xmlns="http://www.w3.org/2000/svg" xmlns:xlink="http://www.w3.org/1999/xlink" x="0px" y="0px"
	 width="1920px" height="450px" viewBox="0 0 1920 450" enable-background="new 0 0 1920 450" xml:space="preserve">
<g>
	<g>
		<path fill="#1B354B" d="M-3405.45,261.967c-4.618,0-8.212-1.501-10.99-4.58c-2.814-3.123-4.243-7.937-4.243-14.303V105.628
			c0-7.078,1.532-12.098,4.557-14.918c3.078-2.873,8.267-4.331,15.424-4.331h46.343c13.371,0,23.743,1.027,30.834,3.05
			c6.857,1.908,12.838,5.098,17.793,9.483c4.952,4.386,8.768,9.835,11.342,16.192c2.605,6.436,3.924,13.808,3.924,21.904
			c0,17.186-5.299,30.335-15.753,39.082c-10.604,8.875-26.8,13.377-48.14,13.377h-33.086c-1.596,0-2.891,1.294-2.891,2.891v50.481
			c0,6.44-1.464,11.311-4.353,14.473C-3397.55,260.444-3401.07,261.967-3405.45,261.967z M-3387.446,107.726
			c-1.596,0-2.891,1.294-2.891,2.889v54.497c0,1.597,1.295,2.89,2.891,2.89h24.328c8.768,0,16.238-0.945,22.207-2.808
			c6.288-1.959,11.182-5.259,14.542-9.796c3.362-4.547,5.065-10.488,5.065-17.655c0-8.587-2.594-15.717-7.712-21.194
			c-5.863-5.955-17.002-8.822-34.103-8.822H-3387.446z"/>
		<path fill="#1B354B" d="M-3126.647,261.967c-3.436,0-6.321-0.792-8.574-2.346c-2.447-1.692-4.591-3.875-6.373-6.488
			c-1.93-2.836-4.622-7.129-7.998-12.753l-14.476-24.09c-5.245-8.932-10.043-15.878-14.243-20.616
			c-4.374-4.94-8.935-8.389-13.55-10.252c-4.539-1.837-10.266-2.766-17.017-2.766h-12.649c-1.596,0-2.891,1.295-2.891,2.891v57.293
			c0,6.751-1.418,11.697-4.21,14.692c-2.784,2.983-6.352,4.435-10.903,4.435c-4.908,0-8.564-1.499-11.177-4.578
			c-2.691-3.174-4.057-8.072-4.057-14.549V105.628c0-6.956,1.475-11.957,4.384-14.864c2.908-2.91,7.91-4.385,14.865-4.385h58.751
			c7.955,0,14.837,0.341,20.457,1.015c5.438,0.651,10.391,1.982,14.716,3.955c5.289,2.227,9.968,5.408,13.979,9.492
			c3.995,4.071,7.075,8.875,9.156,14.279c2.091,5.438,3.152,11.287,3.152,17.389c0,12.477-3.52,22.532-10.465,29.888
			c-7.057,7.479-18.036,12.885-32.636,16.069c-1.183,0.26-2.08,1.229-2.244,2.429c-0.167,1.2,0.435,2.377,1.506,2.946
			c6.061,3.223,11.968,8.078,17.553,14.438c5.695,6.49,10.856,13.498,15.337,20.827c4.49,7.356,8.026,14.063,10.509,19.933
			c3.135,7.413,3.603,10.29,3.603,11.342c0,1.795-0.583,3.568-1.785,5.424c-1.235,1.896-2.887,3.364-5.043,4.477
			C-3121.143,261.399-3123.726,261.967-3126.647,261.967z M-3221.527,107.726c-1.596,0-2.891,1.294-2.891,2.889v49.021
			c0,1.597,1.295,2.892,2.891,2.892h32.356c8.882,0,16.486-0.786,22.604-2.339c6.479-1.643,11.54-4.524,15.042-8.574
			c3.575-4.133,5.387-9.781,5.387-16.791c0-5.504-1.432-10.441-4.255-14.681c-2.824-4.233-6.779-7.437-11.752-9.516
			c-4.614-1.951-13.142-2.9-26.051-2.9H-3221.527z"/>
		<path fill="#1B354B" d="M-2999.045,261.967c-13.508,0-25.746-2.201-36.373-6.538c-10.574-4.317-19.512-10.471-26.556-18.293
			c-7.073-7.852-12.498-17.447-16.129-28.525c-3.657-11.163-5.51-23.425-5.51-36.444c0-13.329,1.93-25.701,5.737-36.77
			c3.786-11.001,9.329-20.477,16.478-28.167c7.133-7.676,15.945-13.634,26.198-17.71c10.315-4.103,22.234-6.183,35.425-6.183
			c17.896,0,33.441,3.662,46.2,10.879c12.683,7.176,22.417,17.521,28.937,30.752c6.585,13.36,9.92,29.323,9.92,47.438
			c0,13.412-1.832,25.752-5.448,36.683c-3.59,10.84-9.036,20.356-16.189,28.287c-7.131,7.903-16.021,14.037-26.427,18.231
			C-2973.253,259.825-2985.454,261.967-2999.045,261.967z M-2999.774,106.265c-7.59,0-14.716,1.453-21.182,4.322
			c-6.493,2.883-12.156,7.13-16.843,12.628c-4.648,5.459-8.357,12.488-11.016,20.892c-2.634,8.315-3.967,17.757-3.967,28.06
			c0,10.381,1.332,19.92,3.964,28.35c2.658,8.534,6.494,15.737,11.397,21.404c4.918,5.692,10.661,10.019,17.071,12.858
			c6.385,2.825,13.469,4.26,21.063,4.26c9.728,0,18.801-2.47,26.963-7.342c8.211-4.9,14.811-12.522,19.62-22.649
			c4.746-9.996,7.153-22.404,7.153-36.881c0-13.396-2.212-25.209-6.573-35.104c-4.435-10.062-10.886-17.799-19.173-22.996
			C-2979.555,108.89-2989.136,106.265-2999.774,106.265z"/>
		<path fill="#1B354B" d="M-2857.815,258.925c-6.01,0-10.504-0.865-13.359-2.569c-2.691-1.607-4.393-3.798-5.206-6.697
			c-0.939-3.334-1.413-7.795-1.413-13.265V105.628c0-6.956,1.476-11.957,4.383-14.864c2.908-2.91,7.911-4.385,14.864-4.385h47.076
			c11.938,0,22.293,1.114,30.779,3.313c8.278,2.146,15.901,6.232,22.663,12.149c17.837,15.271,26.867,38.922,26.867,70.324
			c0,10.466-0.92,20.127-2.734,28.719c-1.798,8.521-4.605,16.296-8.341,23.11c-3.724,6.786-8.564,12.941-14.386,18.301
			c-4.516,4.057-9.55,7.371-14.937,9.836c-5.412,2.474-11.323,4.239-17.566,5.247c-6.347,1.025-13.616,1.546-21.615,1.546H-2857.815
			z M-2844.559,109.185c-1.596,0-2.891,1.293-2.891,2.891v121.032c0,1.598,1.295,2.891,2.891,2.891h27.371
			c6.061,0,10.901-0.166,14.383-0.499c3.627-0.346,7.422-1.216,11.278-2.588c3.976-1.412,7.487-3.44,10.43-6.025
			c12.66-10.708,19.104-29.212,19.104-54.964c0-18.053-2.821-31.858-8.387-41.032c-5.663-9.342-12.819-15.395-21.268-17.99
			c-8.022-2.464-17.807-3.715-29.068-3.715H-2844.559z"/>
		<path fill="#1B354B" d="M-2618.55,261.967c-13.359,0-24.991-1.454-34.566-4.319c-9.387-2.807-17.123-7.189-23.003-13.028
			c-5.869-5.831-10.246-13.442-13.011-22.622c-2.825-9.365-4.257-20.771-4.257-33.896v-85.758c0-6.527,1.407-11.402,4.183-14.489
			c2.735-3.038,6.271-4.517,10.808-4.517c4.785,0,8.439,1.479,11.177,4.518c2.771,3.086,4.178,7.961,4.178,14.488v87.704
			c0,10.23,1.177,18.95,3.497,25.91c2.425,7.295,6.809,13.043,13.023,17.08c6.123,3.982,14.675,6.001,25.42,6.001
			c14.984,0,25.819-4.16,32.203-12.367c6.216-7.988,9.367-20.064,9.367-35.896v-88.433c0-6.609,1.388-11.505,4.122-14.551
			c2.699-2.997,6.255-4.455,10.868-4.455c4.64,0,8.264,1.471,11.084,4.496c2.838,3.04,4.275,7.922,4.275,14.51v85.758
			c0,13.61-1.333,25.085-3.961,34.102c-2.562,8.781-7.468,16.608-14.588,23.269c-6.134,5.674-13.383,9.882-21.533,12.496
			C-2597.538,260.619-2607.393,261.967-2618.55,261.967z"/>
		<path fill="#1B354B" d="M-2442.534,261.967c-16.993,0-31.157-3.225-42.096-9.584c-7.657-4.52-13.98-10.646-18.773-18.209
			c-4.747-7.472-7.153-14.788-7.153-21.744c0-3.631,1.223-6.652,3.739-9.237c2.497-2.563,5.623-3.809,9.549-3.809
			c3.082,0,5.603,0.943,7.708,2.883c2.294,2.122,4.319,5.404,6.017,9.752c2.347,5.868,4.928,10.852,7.679,14.83
			c2.891,4.184,6.989,7.669,12.18,10.347c5.168,2.674,11.959,4.031,20.177,4.031c11.296,0,20.654-2.708,27.821-8.053
			c7.432-5.537,11.201-12.601,11.201-20.989c0-6.668-2.1-12.196-6.239-16.434c-3.92-4.004-9.009-7.089-15.125-9.171
			c-5.771-1.965-13.582-4.081-23.212-6.283c-12.545-2.937-23.181-6.411-31.604-10.326c-8.149-3.787-14.69-9.005-19.44-15.506
			c-4.677-6.399-7.048-14.522-7.048-24.144c0-9.164,2.525-17.404,7.505-24.491c4.999-7.124,12.384-12.694,21.949-16.56
			c9.747-3.936,21.414-5.934,34.68-5.934c10.58,0,19.824,1.32,27.476,3.922c7.604,2.589,13.978,6.049,18.938,10.287
			c4.949,4.221,8.596,8.678,10.84,13.247c2.229,4.528,3.356,8.97,3.356,13.202c0,3.601-1.257,6.774-3.841,9.707
			c-2.488,2.817-5.499,4.188-9.206,4.188c-3.345,0-5.842-0.771-7.421-2.291c-1.924-1.852-4.095-5.025-6.446-9.438
			c-3.364-6.975-7.55-12.601-12.384-16.613c-5.125-4.256-12.893-6.324-23.744-6.324c-9.896,0-18.055,2.249-24.244,6.684
			c-6.489,4.648-9.783,10.41-9.783,17.129c0,4.188,1.175,7.882,3.493,10.976c2.188,2.918,5.2,5.439,8.956,7.495
			c3.565,1.954,7.23,3.505,10.894,4.611c3.521,1.065,9.374,2.632,17.396,4.658c9.967,2.33,19.058,4.921,27.07,7.71
			c7.853,2.737,14.609,6.091,20.081,9.97c5.309,3.769,9.507,8.6,12.483,14.354c2.973,5.766,4.48,12.996,4.48,21.483
			c0,10.165-2.649,19.419-7.872,27.503c-5.222,8.08-13.01,14.517-23.153,19.128C-2415.929,259.6-2428.338,261.967-2442.534,261.967z
			"/>
		<path fill="#1B354B" d="M-2261.894,261.967c-13.51,0-25.748-2.201-36.375-6.538c-10.577-4.317-19.513-10.471-26.556-18.293
			c-7.074-7.855-12.499-17.45-16.127-28.525c-3.657-11.163-5.511-23.425-5.511-36.444c0-13.326,1.931-25.697,5.738-36.771
			c3.783-10.995,9.327-20.471,16.479-28.166c7.128-7.672,15.939-13.631,26.197-17.71c10.317-4.103,22.236-6.183,35.425-6.183
			c17.897,0,33.44,3.662,46.196,10.879c12.683,7.176,22.419,17.521,28.938,30.752c6.584,13.356,9.921,29.318,9.921,47.438
			c0,13.412-1.834,25.752-5.45,36.683c-3.585,10.834-9.03,20.351-16.187,28.287c-7.131,7.903-16.023,14.037-26.428,18.231
			C-2236.102,259.825-2248.301,261.967-2261.894,261.967z M-2262.622,106.265c-7.591,0-14.717,1.453-21.182,4.322
			c-6.493,2.883-12.16,7.132-16.842,12.628c-4.645,5.452-8.354,12.48-11.02,20.891c-2.631,8.32-3.967,17.761-3.967,28.061
			c0,10.376,1.333,19.915,3.964,28.35c2.665,8.542,6.501,15.743,11.401,21.407c4.913,5.688,10.656,10.014,17.066,12.855
			c6.382,2.825,13.472,4.26,21.065,4.26c9.726,0,18.798-2.47,26.961-7.342c8.209-4.9,14.81-12.522,19.622-22.648
			c4.747-10.006,7.153-22.412,7.153-36.882c0-13.395-2.211-25.203-6.574-35.104c-4.433-10.058-10.88-17.796-19.17-22.996
			C-2242.403,108.89-2251.984,106.265-2262.622,106.265z"/>
		<path fill="#1B354B" d="M-1990.149,261.967c-3.963,0-7.123-1.361-9.654-4.159c-2.571-2.842-3.874-7.348-3.874-13.389v-123.1
			c0-1.459-1.086-2.689-2.535-2.869c-0.12-0.015-0.24-0.021-0.358-0.021c-1.308,0-2.475,0.887-2.8,2.186l-28.584,113.613
			c-1.846,7.284-3.356,12.672-4.498,16.007c-1.011,2.962-2.928,5.726-5.701,8.214c-2.602,2.333-6.371,3.519-11.208,3.519
			c-3.646,0-6.734-0.774-9.175-2.301c-2.501-1.565-4.463-3.574-5.832-5.973c-1.497-2.619-2.69-5.564-3.551-8.749
			c-0.928-3.44-1.88-7.018-2.85-10.741l-28.579-113.589c-0.326-1.299-1.493-2.186-2.799-2.186c-0.121,0-0.239,0.007-0.359,0.021
			c-1.448,0.18-2.535,1.41-2.535,2.869v123.1c0,6.045-1.289,10.555-3.83,13.402c-2.487,2.79-5.739,4.146-9.944,4.146
			c-4.06,0-7.26-1.345-9.786-4.111c-2.568-2.794-3.866-7.315-3.866-13.437V103.316c0-6.727,1.613-11.218,4.797-13.353
			c3.551-2.379,8.535-3.585,14.814-3.585h11.192c6.33,0,10.898,0.544,13.578,1.616c2.353,0.94,4.052,2.607,5.202,5.099
			c1.383,2.992,3.002,8.026,4.814,14.968l25.913,97.687c0.337,1.268,1.484,2.149,2.795,2.149c1.312,0,2.457-0.882,2.795-2.149
			l25.908-97.677c1.816-6.941,3.438-11.979,4.819-14.98c1.146-2.486,2.849-4.154,5.198-5.094c2.686-1.074,7.257-1.618,13.586-1.618
			h11.193c6.274,0,11.257,1.206,14.81,3.586c3.187,2.136,4.802,6.628,4.802,13.352v141.103c0,6.049-1.288,10.559-3.827,13.402
			C-1982.569,260.611-1985.862,261.967-1990.149,261.967z"/>
	</g>
	<g>
		<path fill="#1B354B" d="M-3618.777,284.278c0,8.577-6.95,15.527-15.532,15.527h-42.313c-8.573,0-15.532-6.95-15.532-15.527
			c0-8.572,6.959-15.531,15.532-15.531h42.313C-3625.728,268.747-3618.777,275.706-3618.777,284.278z"/>
		<g>
			<path fill="#EFD514" d="M-3495.977,126.045c-2.467-6.51-6.003-12.495-10.383-17.745c-2.727-3.266-5.781-6.244-9.115-8.889
				c-10.6-8.42-24.008-13.443-38.587-13.443h-214.16c-8.576,0-15.527,6.955-15.527,15.532c0,8.574,6.951,15.526,15.527,15.526
				h219.884c6.405,0,12.203,2.586,16.417,6.768l0.175-0.254c0.928,1.139,1.801,2.332,2.595,3.573
				c0.012,0.01,0.022,0.026,0.033,0.043c0.695,1.01,1.306,2.072,1.834,3.188l0.033,0.066c2.715,5.299,4.248,11.305,4.248,17.674
				c0,6.282-1.492,12.218-4.142,17.464c-0.011,0.018-0.017,0.033-0.021,0.044c-0.701,1.549-1.563,3.007-2.568,4.349
				c-0.011,0.017-0.021,0.034-0.033,0.045c-4.251,5.654-11.015,9.315-18.633,9.315h-162.081c-8.576,0-15.532,6.955-15.532,15.531
				s6.956,15.527,15.532,15.527h157.633l0.123-0.178c18.015-0.378,34.146-8.43,45.246-21.021
				c9.666-10.945,15.53-25.328,15.53-41.076C-3491.949,140.324-3493.376,132.894-3495.977,126.045z"/>
			<path fill="#EFD514" d="M-3529.734,169.941c0.944-1.386,1.801-2.838,2.568-4.349L-3529.734,169.941z"/>
			<path fill="#EFD514" d="M-3527.284,130.345c-0.566-1.095-1.177-2.158-1.834-3.188L-3527.284,130.345z"/>
			<path fill="#EFD514" d="M-3529.151,127.113c-0.821-1.192-1.749-2.305-2.77-3.319L-3529.151,127.113z"/>
		</g>
	</g>
	<g>
		<g>
			<path fill="#1B354B" d="M-3153.499,363.015h28.302v8.006h-37.157v-70.375h8.855V363.015z"/>
			<path fill="#1B354B" d="M-3090.003,363.456c2.708,0,5.127-0.49,7.258-1.473c2.13-0.982,3.933-2.357,5.409-4.125
				c1.476-1.768,2.601-3.879,3.378-6.334c0.775-2.457,1.164-5.158,1.164-8.107v-42.771h8.81v42.771
				c0,4.064-0.601,7.828-1.802,11.299c-1.203,3.471-2.923,6.473-5.159,9.012c-2.237,2.537-4.969,4.525-8.194,5.965
				c-3.225,1.441-6.847,2.162-10.863,2.162c-4.018,0-7.639-0.721-10.863-2.162c-3.229-1.439-5.966-3.428-8.218-5.965
				c-2.254-2.539-3.979-5.541-5.181-9.012c-1.204-3.471-1.803-7.234-1.803-11.299v-42.771h8.809v42.727
				c0,2.945,0.389,5.646,1.165,8.104c0.776,2.453,1.9,4.564,3.376,6.332c1.478,1.77,3.288,3.15,5.435,4.152
				C-3095.139,362.958-3092.712,363.456-3090.003,363.456z"/>
			<path fill="#1B354B" d="M-3003.228,300.646v3.535c0,1.113-0.319,2.162-0.959,3.141l-37.02,55.938h37.341v7.762h-48.935v-3.734
				c0-0.98,0.287-1.914,0.867-2.799l37.064-56.084h-36.198v-7.758H-3003.228z"/>
			<path fill="#1B354B" d="M-2887.834,311.644c-0.272,0.492-0.562,0.859-0.865,1.107c-0.306,0.246-0.701,0.365-1.188,0.365
				c-0.519,0-1.119-0.275-1.804-0.834c-0.686-0.557-1.552-1.17-2.602-1.84s-2.313-1.285-3.789-1.842
				c-1.477-0.555-3.264-0.834-5.364-0.834c-1.977,0-3.728,0.287-5.248,0.859c-1.522,0.572-2.792,1.348-3.813,2.332
				c-1.02,0.982-1.789,2.135-2.306,3.463c-0.518,1.324-0.775,2.76-0.775,4.297c0,1.963,0.449,3.592,1.348,4.887
				c0.896,1.293,2.083,2.398,3.56,3.314c1.476,0.918,3.149,1.711,5.021,2.383c1.872,0.67,3.789,1.365,5.752,2.086
				c1.962,0.719,3.879,1.529,5.751,2.432c1.873,0.9,3.545,2.037,5.021,3.412s2.663,3.061,3.561,5.059
				c0.898,1.998,1.348,4.453,1.348,7.367c0,3.076-0.487,5.967-1.462,8.666c-0.975,2.703-2.396,5.051-4.268,7.049
				c-1.871,1.996-4.169,3.566-6.894,4.713c-2.723,1.146-5.818,1.721-9.287,1.721c-4.231,0-8.089-0.826-11.573-2.48
				s-6.459-3.887-8.924-6.705l2.556-4.516c0.244-0.361,0.54-0.666,0.892-0.91c0.349-0.246,0.737-0.369,1.164-0.369
				c0.639,0,1.369,0.369,2.19,1.107c0.82,0.736,1.849,1.545,3.082,2.43c1.232,0.885,2.722,1.695,4.473,2.432
				c1.75,0.736,3.887,1.105,6.415,1.105c2.099,0,3.97-0.313,5.613-0.934c1.643-0.621,3.036-1.496,4.177-2.629
				c1.141-1.129,2.016-2.479,2.625-4.051c0.608-1.57,0.913-3.322,0.913-5.256c0-2.127-0.45-3.871-1.347-5.229
				c-0.898-1.359-2.078-2.496-3.537-3.412c-1.462-0.918-3.128-1.695-4.999-2.334c-1.872-0.639-3.788-1.295-5.752-1.965
				c-1.963-0.672-3.881-1.449-5.752-2.332c-1.871-0.885-3.538-2.031-4.998-3.439c-1.461-1.406-2.641-3.166-3.538-5.281
				c-0.898-2.107-1.348-4.721-1.348-7.83c0-2.488,0.449-4.895,1.348-7.219c0.897-2.324,2.198-4.389,3.903-6.189
				c1.704-1.797,3.811-3.24,6.322-4.318c2.512-1.082,5.394-1.621,8.649-1.621c3.652,0,6.985,0.621,9.998,1.863
				c3.013,1.246,5.645,3.047,7.896,5.404L-2887.834,311.644z"/>
			<path fill="#1B354B" d="M-2812.195,335.856c0,5.27-0.776,10.109-2.328,14.512c-1.552,4.404-3.744,8.193-6.572,11.367
				c-2.831,3.178-6.231,5.641-10.202,7.393c-3.973,1.754-8.363,2.629-13.17,2.629c-4.811,0-9.191-0.875-13.146-2.629
				c-3.957-1.752-7.349-4.215-10.18-7.393c-2.83-3.174-5.021-6.963-6.574-11.367c-1.552-4.402-2.327-9.242-2.327-14.512
				c0-5.271,0.775-10.109,2.327-14.514c1.553-4.4,3.744-8.199,6.574-11.393c2.831-3.191,6.223-5.672,10.18-7.441
				c3.955-1.768,8.336-2.648,13.146-2.648c4.807,0,9.197,0.881,13.17,2.648c3.971,1.77,7.371,4.25,10.202,7.441
				c2.828,3.193,5.021,6.992,6.572,11.393C-2812.972,325.747-2812.195,330.585-2812.195,335.856z M-2821.279,335.856
				c0-4.322-0.547-8.199-1.643-11.639c-1.097-3.438-2.648-6.344-4.656-8.719c-2.01-2.373-4.444-4.195-7.304-5.475
				c-2.86-1.275-6.057-1.918-9.586-1.918c-3.5,0-6.681,0.643-9.54,1.918c-2.86,1.279-5.304,3.102-7.327,5.475
				c-2.023,2.375-3.583,5.281-4.68,8.719c-1.095,3.439-1.642,7.316-1.642,11.639c0,4.32,0.547,8.193,1.642,11.617
				c1.097,3.418,2.656,6.316,4.68,8.689s4.467,4.191,7.327,5.451c2.859,1.262,6.04,1.891,9.54,1.891
				c3.529,0,6.726-0.629,9.586-1.891c2.859-1.26,5.294-3.078,7.304-5.451c2.008-2.373,3.56-5.271,4.656-8.689
				C-2821.826,344.05-2821.279,340.177-2821.279,335.856z"/>
			<path fill="#1B354B" d="M-2766.799,348.062c0.319,0.867,0.629,1.742,0.935,2.627c0.304-0.916,0.623-1.793,0.96-2.627
				c0.334-0.836,0.714-1.678,1.14-2.531l22.139-43.264c0.396-0.754,0.807-1.213,1.233-1.377c0.426-0.162,1.033-0.244,1.826-0.244
				h6.527v70.375h-7.761v-51.713c0-0.688,0.017-1.424,0.047-2.211c0.029-0.787,0.074-1.586,0.137-2.408l-22.414,44.004
				c-0.762,1.473-1.826,2.211-3.195,2.211h-1.277c-1.369,0-2.436-0.738-3.195-2.211l-22.915-44.148
				c0.091,0.852,0.159,1.686,0.205,2.506c0.046,0.816,0.068,1.57,0.068,2.258v51.713h-7.76v-70.375h6.527
				c0.791,0,1.4,0.082,1.826,0.244c0.425,0.164,0.836,0.623,1.233,1.377l22.594,43.314
				C-2767.492,346.366-2767.119,347.192-2766.799,348.062z"/>
			<path fill="#1B354B" d="M-2642.139,371.021h-8.856v-70.375h8.856V371.021z"/>
			<path fill="#1B354B" d="M-2592.715,348.062c0.32,0.867,0.632,1.742,0.936,2.627c0.305-0.916,0.625-1.793,0.959-2.627
				c0.337-0.836,0.717-1.678,1.142-2.531l22.14-43.264c0.395-0.754,0.805-1.213,1.232-1.377c0.427-0.162,1.034-0.244,1.826-0.244
				h6.528v70.375h-7.761v-51.713c0-0.688,0.014-1.424,0.047-2.211c0.029-0.787,0.073-1.586,0.137-2.408l-22.415,44.004
				c-0.76,1.473-1.825,2.211-3.194,2.211h-1.277c-1.369,0-2.437-0.738-3.194-2.211l-22.916-44.148
				c0.091,0.852,0.159,1.686,0.205,2.506c0.045,0.816,0.068,1.57,0.068,2.258v51.713h-7.761v-70.375h6.527
				c0.79,0,1.401,0.082,1.825,0.244c0.428,0.164,0.838,0.623,1.234,1.377l22.595,43.314
				C-2593.407,346.366-2593.032,347.192-2592.715,348.062z"/>
			<path fill="#1B354B" d="M-2486.801,371.021h-6.847c-0.791,0-1.432-0.215-1.918-0.641c-0.487-0.426-0.852-0.965-1.096-1.619
				l-6.115-16.994h-29.354l-6.115,16.994c-0.214,0.588-0.578,1.111-1.096,1.572c-0.518,0.457-1.157,0.688-1.918,0.688h-6.847
				l26.155-70.375h8.993L-2486.801,371.021z M-2529.664,344.894h24.421l-10.271-28.629c-0.668-1.77-1.322-3.982-1.963-6.631
				c-0.334,1.34-0.662,2.574-0.979,3.705c-0.32,1.131-0.633,2.121-0.937,2.971L-2529.664,344.894z"/>
			<path fill="#1B354B" d="M-2451.288,364.093c1.766,0,3.386-0.088,4.861-0.268s2.869-0.451,4.178-0.811
				c1.309-0.361,2.54-0.795,3.698-1.303c1.155-0.506,2.311-1.086,3.468-1.744V344.45h-10.134c-0.577,0-1.043-0.178-1.391-0.539
				c-0.351-0.361-0.526-0.803-0.526-1.328v-5.4h20.085v27.01c-1.642,1.277-3.355,2.389-5.136,3.34
				c-1.778,0.949-3.682,1.744-5.704,2.383c-2.025,0.637-4.194,1.113-6.507,1.422c-2.313,0.313-4.823,0.469-7.53,0.469
				c-4.747,0-9.1-0.877-13.056-2.629c-3.958-1.752-7.366-4.207-10.227-7.365c-2.86-3.16-5.089-6.949-6.688-11.369
				c-1.596-4.422-2.395-9.283-2.395-14.586c0-5.369,0.782-10.264,2.351-14.682c1.565-4.422,3.803-8.211,6.71-11.373
				c2.907-3.158,6.421-5.605,10.544-7.342c4.123-1.732,8.741-2.6,13.854-2.6c2.587,0,4.99,0.201,7.213,0.613
				c2.22,0.408,4.281,0.998,6.184,1.77c1.902,0.768,3.66,1.701,5.273,2.797c1.612,1.096,3.119,2.332,4.519,3.709l-2.51,4.318
				c-0.518,0.885-1.188,1.33-2.009,1.33c-0.488,0-1.02-0.182-1.597-0.545c-0.761-0.457-1.615-1.012-2.557-1.668
				c-0.944-0.654-2.095-1.283-3.446-1.889c-1.355-0.605-2.954-1.123-4.793-1.547c-1.844-0.428-4.024-0.643-6.552-0.643
				c-3.682,0-7.016,0.65-9.996,1.943c-2.984,1.293-5.524,3.143-7.624,5.547c-2.1,2.406-3.713,5.322-4.837,8.744
				c-1.129,3.422-1.688,7.26-1.688,11.516c0,4.451,0.585,8.422,1.757,11.908c1.172,3.488,2.822,6.441,4.952,8.863
				c2.13,2.426,4.656,4.275,7.577,5.553C-2458.044,363.456-2454.817,364.093-2451.288,364.093z"/>
			<path fill="#1B354B" d="M-2373.141,300.646v7.758h-31.406v23.379h25.428v7.465h-25.428v24.012h31.406v7.762h-40.305v-70.375
				H-2373.141z"/>
			<path fill="#1B354B" d="M-2327.104,348.062c0.319,0.867,0.632,1.742,0.936,2.627c0.304-0.916,0.625-1.793,0.958-2.627
				c0.334-0.836,0.715-1.678,1.142-2.531l22.138-43.264c0.396-0.754,0.808-1.213,1.234-1.377c0.425-0.162,1.032-0.244,1.826-0.244
				h6.526v70.375h-7.762v-51.713c0-0.688,0.018-1.424,0.047-2.211c0.031-0.787,0.077-1.586,0.137-2.408l-22.411,44.004
				c-0.761,1.473-1.825,2.211-3.196,2.211h-1.279c-1.368,0-2.434-0.738-3.194-2.211l-22.915-44.148
				c0.091,0.852,0.159,1.686,0.205,2.506c0.047,0.816,0.069,1.57,0.069,2.258v51.713h-7.762v-70.375h6.529
				c0.792,0,1.398,0.082,1.826,0.244c0.425,0.164,0.835,0.623,1.231,1.377l22.595,43.314
				C-2327.797,346.366-2327.425,347.192-2327.104,348.062z"/>
		</g>
		<circle fill="#1B354B" cx="-2690.871" cy="354.267" r="7.884"/>
		<circle fill="#1B354B" cx="-2963.26" cy="354.267" r="7.884"/>
	</g>
</g>
<g>
	<g>
		<path fill="#1B354B" d="M-1485.45,261.967c-4.618,0-8.212-1.501-10.99-4.58c-2.814-3.123-4.243-7.937-4.243-14.303V105.628
			c0-7.078,1.532-12.098,4.557-14.918c3.078-2.873,8.267-4.331,15.424-4.331h46.343c13.371,0,23.743,1.027,30.834,3.05
			c6.857,1.908,12.838,5.098,17.793,9.483c4.952,4.386,8.768,9.835,11.342,16.192c2.605,6.436,3.924,13.808,3.924,21.904
			c0,17.186-5.299,30.335-15.753,39.082c-10.604,8.875-26.8,13.377-48.14,13.377h-33.086c-1.596,0-2.891,1.294-2.891,2.891v50.481
			c0,6.44-1.464,11.311-4.353,14.473C-1477.55,260.444-1481.07,261.967-1485.45,261.967z M-1467.446,107.726
			c-1.596,0-2.891,1.294-2.891,2.889v54.497c0,1.597,1.295,2.89,2.891,2.89h24.328c8.768,0,16.238-0.945,22.207-2.808
			c6.288-1.959,11.182-5.259,14.542-9.796c3.362-4.547,5.065-10.488,5.065-17.655c0-8.587-2.594-15.717-7.712-21.194
			c-5.863-5.955-17.002-8.822-34.103-8.822H-1467.446z"/>
		<path fill="#1B354B" d="M-1206.647,261.967c-3.436,0-6.321-0.792-8.574-2.346c-2.447-1.692-4.591-3.875-6.373-6.488
			c-1.93-2.836-4.622-7.129-7.998-12.753l-14.476-24.09c-5.245-8.932-10.043-15.878-14.243-20.616
			c-4.374-4.94-8.935-8.389-13.55-10.252c-4.539-1.837-10.266-2.766-17.017-2.766h-12.649c-1.596,0-2.891,1.295-2.891,2.891v57.293
			c0,6.751-1.418,11.697-4.21,14.692c-2.784,2.983-6.352,4.435-10.903,4.435c-4.908,0-8.564-1.499-11.177-4.578
			c-2.691-3.174-4.057-8.072-4.057-14.549V105.628c0-6.956,1.475-11.957,4.384-14.864c2.908-2.91,7.91-4.385,14.865-4.385h58.751
			c7.955,0,14.837,0.341,20.457,1.015c5.438,0.651,10.391,1.982,14.716,3.955c5.289,2.227,9.968,5.408,13.979,9.492
			c3.995,4.071,7.075,8.875,9.156,14.279c2.091,5.438,3.152,11.287,3.152,17.389c0,12.477-3.52,22.532-10.465,29.888
			c-7.057,7.479-18.036,12.885-32.636,16.069c-1.183,0.26-2.08,1.229-2.244,2.429c-0.167,1.2,0.435,2.377,1.506,2.946
			c6.061,3.223,11.968,8.078,17.553,14.438c5.695,6.49,10.856,13.498,15.337,20.827c4.49,7.356,8.026,14.063,10.509,19.933
			c3.135,7.413,3.603,10.29,3.603,11.342c0,1.795-0.583,3.568-1.785,5.424c-1.235,1.896-2.887,3.364-5.043,4.477
			C-1201.143,261.399-1203.726,261.967-1206.647,261.967z M-1301.527,107.726c-1.596,0-2.891,1.294-2.891,2.889v49.021
			c0,1.597,1.295,2.892,2.891,2.892h32.356c8.882,0,16.486-0.786,22.604-2.339c6.479-1.643,11.54-4.524,15.042-8.574
			c3.575-4.133,5.387-9.781,5.387-16.791c0-5.504-1.432-10.441-4.255-14.681c-2.824-4.233-6.779-7.437-11.752-9.516
			c-4.614-1.951-13.142-2.9-26.051-2.9H-1301.527z"/>
		<path fill="#1B354B" d="M-1079.045,261.967c-13.508,0-25.746-2.201-36.373-6.538c-10.574-4.317-19.512-10.471-26.556-18.293
			c-7.073-7.852-12.498-17.447-16.129-28.525c-3.657-11.163-5.51-23.425-5.51-36.444c0-13.329,1.93-25.701,5.737-36.77
			c3.786-11.001,9.329-20.477,16.478-28.167c7.133-7.676,15.945-13.634,26.198-17.71c10.315-4.103,22.234-6.183,35.425-6.183
			c17.896,0,33.441,3.662,46.2,10.879c12.682,7.176,22.417,17.521,28.938,30.752c6.584,13.36,9.92,29.323,9.92,47.438
			c0,13.412-1.832,25.752-5.449,36.683c-3.59,10.84-9.035,20.356-16.19,28.287c-7.13,7.903-16.021,14.037-26.426,18.231
			C-1053.253,259.825-1065.454,261.967-1079.045,261.967z M-1079.774,106.265c-7.59,0-14.716,1.453-21.182,4.322
			c-6.493,2.883-12.156,7.13-16.843,12.628c-4.648,5.459-8.357,12.488-11.016,20.892c-2.634,8.315-3.967,17.757-3.967,28.06
			c0,10.381,1.332,19.92,3.964,28.35c2.658,8.534,6.494,15.737,11.397,21.404c4.918,5.692,10.661,10.019,17.071,12.858
			c6.385,2.825,13.469,4.26,21.063,4.26c9.728,0,18.801-2.47,26.963-7.342c8.211-4.9,14.811-12.522,19.62-22.649
			c4.746-9.996,7.153-22.404,7.153-36.881c0-13.396-2.212-25.209-6.573-35.104c-4.435-10.062-10.886-17.799-19.173-22.996
			C-1059.555,108.89-1069.136,106.265-1079.774,106.265z"/>
		<path fill="#1B354B" d="M-937.811,258.925c-6.01,0-10.504-0.865-13.359-2.569c-2.691-1.607-4.393-3.798-5.207-6.697
			c-0.939-3.334-1.412-7.795-1.412-13.265V105.628c0-6.956,1.475-11.957,4.383-14.864c2.908-2.91,7.91-4.385,14.863-4.385h47.076
			c11.939,0,22.293,1.114,30.779,3.313c8.277,2.146,15.9,6.232,22.662,12.149c17.836,15.271,26.867,38.922,26.867,70.324
			c0,10.466-0.92,20.127-2.734,28.719c-1.797,8.521-4.605,16.296-8.342,23.11c-3.723,6.786-8.564,12.941-14.385,18.301
			c-4.516,4.057-9.549,7.371-14.936,9.836c-5.412,2.474-11.324,4.239-17.566,5.247c-6.346,1.025-13.615,1.546-21.615,1.546H-937.811
			z M-924.555,109.185c-1.596,0-2.891,1.293-2.891,2.891v121.032c0,1.598,1.295,2.891,2.891,2.891h27.371
			c6.061,0,10.902-0.166,14.383-0.499c3.627-0.346,7.422-1.216,11.279-2.588c3.975-1.412,7.486-3.44,10.428-6.025
			c12.66-10.708,19.104-29.212,19.104-54.964c0-18.053-2.82-31.858-8.387-41.032c-5.662-9.342-12.818-15.395-21.266-17.99
			c-8.023-2.464-17.807-3.715-29.07-3.715H-924.555z"/>
		<path fill="#1B354B" d="M-698.547,261.967c-13.359,0-24.992-1.454-34.566-4.319c-9.387-2.807-17.123-7.189-23.002-13.028
			c-5.869-5.831-10.246-13.442-13.01-22.622c-2.826-9.365-4.258-20.771-4.258-33.896v-85.758c0-6.527,1.408-11.402,4.184-14.489
			c2.734-3.038,6.27-4.517,10.807-4.517c4.785,0,8.439,1.479,11.176,4.518c2.771,3.086,4.178,7.961,4.178,14.488v87.704
			c0,10.23,1.178,18.95,3.498,25.91c2.424,7.295,6.807,13.043,13.021,17.08c6.123,3.982,14.676,6.001,25.42,6.001
			c14.984,0,25.82-4.16,32.203-12.367c6.217-7.988,9.367-20.064,9.367-35.896v-88.433c0-6.609,1.389-11.505,4.123-14.551
			c2.699-2.997,6.254-4.455,10.867-4.455c4.641,0,8.264,1.471,11.084,4.496c2.838,3.04,4.275,7.922,4.275,14.51v85.758
			c0,13.61-1.332,25.085-3.961,34.102c-2.561,8.781-7.467,16.608-14.588,23.269c-6.133,5.674-13.383,9.882-21.533,12.496
			C-677.535,260.619-687.391,261.967-698.547,261.967z"/>
		<path fill="#1B354B" d="M-522.531,261.967c-16.994,0-31.158-3.225-42.096-9.584c-7.658-4.52-13.98-10.646-18.773-18.209
			c-4.748-7.472-7.154-14.788-7.154-21.744c0-3.631,1.223-6.652,3.74-9.237c2.496-2.563,5.623-3.809,9.549-3.809
			c3.082,0,5.602,0.943,7.707,2.883c2.295,2.122,4.32,5.404,6.018,9.752c2.346,5.868,4.928,10.852,7.678,14.83
			c2.891,4.184,6.99,7.669,12.18,10.347c5.168,2.674,11.959,4.031,20.178,4.031c11.297,0,20.654-2.708,27.822-8.053
			c7.432-5.537,11.201-12.601,11.201-20.989c0-6.668-2.1-12.196-6.24-16.434c-3.92-4.004-9.008-7.089-15.125-9.171
			c-5.771-1.965-13.582-4.081-23.213-6.283c-12.545-2.937-23.18-6.411-31.604-10.326c-8.15-3.787-14.691-9.005-19.441-15.506
			c-4.676-6.399-7.047-14.522-7.047-24.144c0-9.164,2.525-17.404,7.504-24.491c5-7.124,12.385-12.694,21.949-16.56
			c9.748-3.936,21.414-5.934,34.682-5.934c10.58,0,19.824,1.32,27.475,3.922c7.605,2.589,13.979,6.049,18.938,10.287
			c4.949,4.221,8.596,8.678,10.84,13.247c2.229,4.528,3.355,8.97,3.355,13.202c0,3.601-1.256,6.774-3.84,9.707
			c-2.488,2.817-5.498,4.188-9.205,4.188c-3.346,0-5.842-0.771-7.422-2.291c-1.924-1.852-4.094-5.025-6.445-9.438
			c-3.365-6.975-7.551-12.601-12.385-16.613c-5.125-4.256-12.893-6.324-23.744-6.324c-9.896,0-18.055,2.249-24.244,6.684
			c-6.49,4.648-9.783,10.41-9.783,17.129c0,4.188,1.174,7.882,3.492,10.976c2.188,2.918,5.201,5.439,8.957,7.495
			c3.564,1.954,7.23,3.505,10.893,4.611c3.521,1.065,9.375,2.632,17.398,4.658c9.967,2.33,19.057,4.921,27.07,7.71
			c7.852,2.737,14.609,6.091,20.08,9.97c5.309,3.769,9.506,8.6,12.482,14.354c2.973,5.766,4.48,12.996,4.48,21.483
			c0,10.165-2.648,19.419-7.871,27.503c-5.223,8.08-13.01,14.517-23.152,19.128C-495.926,259.6-508.334,261.967-522.531,261.967z"/>
		<path fill="#1B354B" d="M-341.893,261.967c-13.51,0-25.748-2.201-36.375-6.538c-10.576-4.317-19.512-10.471-26.555-18.293
			c-7.074-7.855-12.498-17.45-16.127-28.525c-3.656-11.163-5.51-23.425-5.51-36.444c0-13.326,1.93-25.697,5.738-36.771
			c3.783-10.995,9.326-20.471,16.479-28.166c7.127-7.672,15.939-13.631,26.197-17.71c10.316-4.103,22.236-6.183,35.424-6.183
			c17.898,0,33.441,3.662,46.197,10.879c12.682,7.176,22.418,17.521,28.936,30.752c6.584,13.356,9.922,29.318,9.922,47.438
			c0,13.412-1.834,25.752-5.451,36.683c-3.584,10.834-9.029,20.351-16.186,28.287c-7.131,7.903-16.023,14.037-26.428,18.231
			C-316.1,259.825-328.299,261.967-341.893,261.967z M-342.621,106.265c-7.59,0-14.717,1.453-21.182,4.322
			c-6.492,2.883-12.16,7.132-16.842,12.628c-4.645,5.452-8.354,12.48-11.02,20.891c-2.631,8.32-3.967,17.761-3.967,28.061
			c0,10.376,1.334,19.915,3.965,28.35c2.664,8.542,6.5,15.743,11.4,21.407c4.914,5.688,10.656,10.014,17.066,12.855
			c6.383,2.825,13.473,4.26,21.066,4.26c9.725,0,18.797-2.47,26.961-7.342c8.209-4.9,14.809-12.522,19.621-22.648
			c4.748-10.006,7.154-22.412,7.154-36.882c0-13.395-2.211-25.203-6.574-35.104c-4.434-10.058-10.881-17.796-19.17-22.996
			C-322.402,108.89-331.982,106.265-342.621,106.265z"/>
		<path fill="#1B354B" d="M-70.15,261.967c-3.963,0-7.121-1.361-9.652-4.159c-2.572-2.842-3.875-7.348-3.875-13.389v-123.1
			c0-1.459-1.086-2.689-2.535-2.869c-0.119-0.015-0.24-0.021-0.357-0.021c-1.309,0-2.475,0.887-2.801,2.186l-28.584,113.613
			c-1.846,7.284-3.355,12.672-4.498,16.007c-1.01,2.962-2.928,5.726-5.701,8.214c-2.6,2.333-6.369,3.519-11.207,3.519
			c-3.646,0-6.734-0.774-9.174-2.301c-2.502-1.565-4.463-3.574-5.832-5.973c-1.498-2.619-2.691-5.564-3.551-8.749
			c-0.928-3.44-1.881-7.018-2.85-10.741l-28.58-113.589c-0.326-1.299-1.492-2.186-2.799-2.186c-0.121,0-0.238,0.007-0.359,0.021
			c-1.447,0.18-2.535,1.41-2.535,2.869v123.1c0,6.045-1.289,10.555-3.83,13.402c-2.486,2.79-5.738,4.146-9.943,4.146
			c-4.061,0-7.262-1.345-9.787-4.111c-2.568-2.794-3.867-7.315-3.867-13.437V103.316c0-6.727,1.613-11.218,4.797-13.353
			c3.551-2.379,8.537-3.585,14.816-3.585h11.191c6.33,0,10.898,0.544,13.578,1.616c2.354,0.94,4.053,2.607,5.203,5.099
			c1.383,2.992,3.002,8.026,4.814,14.968l25.912,97.687c0.338,1.268,1.484,2.149,2.795,2.149c1.313,0,2.457-0.882,2.795-2.149
			l25.908-97.677c1.816-6.941,3.438-11.979,4.818-14.98c1.146-2.486,2.85-4.154,5.199-5.094c2.686-1.074,7.256-1.618,13.586-1.618
			h11.193c6.273,0,11.256,1.206,14.809,3.586c3.186,2.136,4.801,6.628,4.801,13.352v141.103c0,6.049-1.287,10.559-3.826,13.402
			C-62.57,260.611-65.863,261.967-70.15,261.967z"/>
	</g>
	<g>
		<path fill="#1B354B" d="M-1698.777,284.278c0,8.577-6.95,15.527-15.532,15.527h-42.313c-8.573,0-15.532-6.95-15.532-15.527
			c0-8.572,6.959-15.531,15.532-15.531h42.313C-1705.728,268.747-1698.777,275.706-1698.777,284.278z"/>
		<g>
			<path fill="#1B354B" d="M-1575.977,126.045c-2.467-6.51-6.003-12.495-10.383-17.745c-2.727-3.266-5.781-6.244-9.115-8.889
				c-10.6-8.42-24.008-13.443-38.587-13.443h-214.16c-8.576,0-15.527,6.955-15.527,15.532c0,8.574,6.951,15.526,15.527,15.526
				h219.884c6.405,0,12.203,2.586,16.417,6.768l0.175-0.254c0.928,1.139,1.801,2.332,2.595,3.573
				c0.012,0.01,0.022,0.026,0.033,0.043c0.695,1.01,1.306,2.072,1.834,3.188l0.033,0.066c2.715,5.299,4.248,11.305,4.248,17.674
				c0,6.282-1.492,12.218-4.142,17.464c-0.011,0.018-0.017,0.033-0.021,0.044c-0.701,1.549-1.563,3.007-2.568,4.349
				c-0.011,0.017-0.021,0.034-0.033,0.045c-4.251,5.654-11.015,9.315-18.633,9.315h-162.081c-8.576,0-15.532,6.955-15.532,15.531
				s6.956,15.527,15.532,15.527h157.633l0.123-0.178c18.015-0.378,34.146-8.43,45.246-21.021
				c9.666-10.945,15.53-25.328,15.53-41.076C-1571.949,140.324-1573.376,132.894-1575.977,126.045z"/>
			<path fill="#1B354B" d="M-1609.734,169.941c0.944-1.386,1.801-2.838,2.568-4.349L-1609.734,169.941z"/>
			<path fill="#1B354B" d="M-1607.284,130.345c-0.566-1.095-1.177-2.158-1.834-3.188L-1607.284,130.345z"/>
			<path fill="#1B354B" d="M-1609.151,127.113c-0.821-1.192-1.749-2.305-2.77-3.319L-1609.151,127.113z"/>
		</g>
	</g>
	<g>
		<g>
			<path fill="#1B354B" d="M-1233.499,363.015h28.302v8.006h-37.157v-70.375h8.855V363.015z"/>
			<path fill="#1B354B" d="M-1170.003,363.456c2.708,0,5.127-0.49,7.258-1.473c2.13-0.982,3.933-2.357,5.409-4.125
				c1.476-1.768,2.601-3.879,3.378-6.334c0.775-2.457,1.164-5.158,1.164-8.107v-42.771h8.81v42.771
				c0,4.064-0.601,7.828-1.802,11.299c-1.203,3.471-2.923,6.473-5.159,9.012c-2.237,2.537-4.969,4.525-8.194,5.965
				c-3.225,1.441-6.847,2.162-10.863,2.162c-4.018,0-7.639-0.721-10.863-2.162c-3.229-1.439-5.966-3.428-8.218-5.965
				c-2.254-2.539-3.979-5.541-5.181-9.012c-1.204-3.471-1.803-7.234-1.803-11.299v-42.771h8.809v42.727
				c0,2.945,0.389,5.646,1.165,8.104c0.776,2.453,1.9,4.564,3.376,6.332c1.478,1.77,3.288,3.15,5.435,4.152
				C-1175.139,362.958-1172.712,363.456-1170.003,363.456z"/>
			<path fill="#1B354B" d="M-1083.228,300.646v3.535c0,1.113-0.319,2.162-0.959,3.141l-37.02,55.938h37.341v7.762h-48.935v-3.734
				c0-0.98,0.287-1.914,0.867-2.799l37.064-56.084h-36.198v-7.758H-1083.228z"/>
			<path fill="#1B354B" d="M-967.831,311.644c-0.271,0.492-0.561,0.859-0.866,1.107c-0.307,0.246-0.701,0.365-1.188,0.365
				c-0.52,0-1.119-0.275-1.805-0.834c-0.686-0.557-1.551-1.17-2.602-1.84c-1.049-0.67-2.313-1.285-3.789-1.842
				c-1.477-0.555-3.264-0.834-5.363-0.834c-1.977,0-3.729,0.287-5.249,0.859c-1.523,0.572-2.793,1.348-3.813,2.332
				c-1.022,0.982-1.792,2.135-2.307,3.463c-0.518,1.324-0.775,2.76-0.775,4.297c0,1.963,0.449,3.592,1.348,4.887
				c0.895,1.293,2.084,2.398,3.561,3.314c1.475,0.918,3.148,1.711,5.022,2.383c1.871,0.67,3.789,1.365,5.752,2.086
				c1.961,0.719,3.879,1.529,5.75,2.432c1.873,0.9,3.545,2.037,5.021,3.412c1.477,1.375,2.665,3.061,3.561,5.059
				c0.898,1.998,1.348,4.453,1.348,7.367c0,3.076-0.486,5.967-1.461,8.666c-0.975,2.703-2.396,5.051-4.27,7.049
				c-1.871,1.996-4.168,3.566-6.893,4.713c-2.723,1.146-5.818,1.721-9.287,1.721c-4.233,0-8.091-0.826-11.575-2.48
				s-6.459-3.887-8.924-6.705l2.555-4.516c0.244-0.361,0.541-0.666,0.893-0.91c0.348-0.246,0.736-0.369,1.164-0.369
				c0.639,0,1.369,0.369,2.189,1.107c0.82,0.736,1.85,1.545,3.082,2.43s2.723,1.695,4.475,2.432c1.75,0.736,3.887,1.105,6.415,1.105
				c2.1,0,3.971-0.313,5.613-0.934s3.037-1.496,4.178-2.629c1.141-1.129,2.016-2.479,2.625-4.051
				c0.607-1.57,0.912-3.322,0.912-5.256c0-2.127-0.449-3.871-1.346-5.229c-0.898-1.359-2.078-2.496-3.537-3.412
				c-1.463-0.918-3.129-1.695-5-2.334s-3.787-1.295-5.752-1.965c-1.963-0.672-3.881-1.449-5.752-2.332
				c-1.871-0.885-3.539-2.031-4.998-3.439c-1.461-1.406-2.641-3.166-3.539-5.281c-0.898-2.107-1.348-4.721-1.348-7.83
				c0-2.488,0.449-4.895,1.348-7.219s2.199-4.389,3.904-6.189c1.703-1.797,3.811-3.24,6.323-4.318
				c2.512-1.082,5.395-1.621,8.651-1.621c3.652,0,6.984,0.621,9.998,1.863c3.012,1.246,5.645,3.047,7.897,5.404L-967.831,311.644z"
				/>
			<path fill="#1B354B" d="M-892.191,335.856c0,5.27-0.777,10.109-2.328,14.512c-1.553,4.404-3.744,8.193-6.572,11.367
				c-2.832,3.178-6.232,5.641-10.203,7.393c-3.971,1.754-8.361,2.629-13.168,2.629c-4.811,0-9.191-0.875-13.146-2.629
				c-3.957-1.752-7.35-4.215-10.18-7.393c-2.83-3.174-5.021-6.963-6.574-11.367c-1.553-4.402-2.328-9.242-2.328-14.512
				c0-5.271,0.775-10.109,2.328-14.514c1.553-4.4,3.744-8.199,6.574-11.393c2.83-3.191,6.223-5.672,10.18-7.441
				c3.955-1.768,8.336-2.648,13.146-2.648c4.807,0,9.197,0.881,13.168,2.648c3.971,1.77,7.371,4.25,10.203,7.441
				c2.828,3.193,5.02,6.992,6.572,11.393C-892.969,325.747-892.191,330.585-892.191,335.856z M-901.275,335.856
				c0-4.322-0.547-8.199-1.643-11.639c-1.098-3.438-2.648-6.344-4.656-8.719c-2.01-2.373-4.445-4.195-7.303-5.475
				c-2.861-1.275-6.057-1.918-9.586-1.918c-3.5,0-6.682,0.643-9.541,1.918c-2.859,1.279-5.303,3.102-7.326,5.475
				c-2.023,2.375-3.584,5.281-4.68,8.719c-1.096,3.439-1.643,7.316-1.643,11.639c0,4.32,0.547,8.193,1.643,11.617
				c1.096,3.418,2.656,6.316,4.68,8.689s4.467,4.191,7.326,5.451c2.859,1.262,6.041,1.891,9.541,1.891
				c3.529,0,6.725-0.629,9.586-1.891c2.857-1.26,5.293-3.078,7.303-5.451c2.008-2.373,3.559-5.271,4.656-8.689
				C-901.822,344.05-901.275,340.177-901.275,335.856z"/>
			<path fill="#1B354B" d="M-846.795,348.062c0.318,0.867,0.629,1.742,0.934,2.627c0.305-0.916,0.623-1.793,0.961-2.627
				c0.334-0.836,0.713-1.678,1.139-2.531l22.139-43.264c0.396-0.754,0.807-1.213,1.232-1.377c0.426-0.162,1.033-0.244,1.828-0.244
				h6.525v70.375h-7.76v-51.713c0-0.688,0.016-1.424,0.047-2.211c0.029-0.787,0.074-1.586,0.137-2.408l-22.414,44.004
				c-0.762,1.473-1.826,2.211-3.195,2.211h-1.277c-1.369,0-2.436-0.738-3.195-2.211l-22.914-44.148
				c0.092,0.852,0.16,1.686,0.205,2.506c0.047,0.816,0.068,1.57,0.068,2.258v51.713h-7.76v-70.375h6.527
				c0.791,0,1.4,0.082,1.826,0.244c0.426,0.164,0.836,0.623,1.234,1.377l22.592,43.314
				C-847.488,346.366-847.115,347.192-846.795,348.062z"/>
			<path fill="#1B354B" d="M-722.137,371.021h-8.855v-70.375h8.855V371.021z"/>
			<path fill="#1B354B" d="M-672.713,348.062c0.32,0.867,0.633,1.742,0.936,2.627c0.305-0.916,0.625-1.793,0.959-2.627
				c0.338-0.836,0.717-1.678,1.143-2.531l22.139-43.264c0.395-0.754,0.805-1.213,1.232-1.377c0.428-0.162,1.035-0.244,1.826-0.244
				h6.529v70.375h-7.762v-51.713c0-0.688,0.014-1.424,0.047-2.211c0.029-0.787,0.074-1.586,0.137-2.408l-22.414,44.004
				c-0.76,1.473-1.826,2.211-3.195,2.211h-1.277c-1.369,0-2.436-0.738-3.193-2.211l-22.916-44.148
				c0.09,0.852,0.158,1.686,0.205,2.506c0.045,0.816,0.068,1.57,0.068,2.258v51.713h-7.762v-70.375h6.527
				c0.791,0,1.402,0.082,1.826,0.244c0.428,0.164,0.838,0.623,1.234,1.377l22.594,43.314
				C-673.404,346.366-673.029,347.192-672.713,348.062z"/>
			<path fill="#1B354B" d="M-566.799,371.021h-6.846c-0.791,0-1.432-0.215-1.918-0.641c-0.488-0.426-0.852-0.965-1.096-1.619
				l-6.115-16.994h-29.354l-6.115,16.994c-0.215,0.588-0.578,1.111-1.096,1.572c-0.518,0.457-1.158,0.688-1.918,0.688h-6.848
				l26.156-70.375h8.992L-566.799,371.021z M-609.662,344.894h24.422l-10.271-28.629c-0.668-1.77-1.322-3.982-1.963-6.631
				c-0.334,1.34-0.662,2.574-0.979,3.705c-0.32,1.131-0.633,2.121-0.938,2.971L-609.662,344.894z"/>
			<path fill="#1B354B" d="M-531.285,364.093c1.766,0,3.385-0.088,4.861-0.268c1.475-0.18,2.869-0.451,4.178-0.811
				c1.309-0.361,2.541-0.795,3.699-1.303c1.154-0.506,2.311-1.086,3.467-1.744V344.45h-10.135c-0.576,0-1.043-0.178-1.391-0.539
				c-0.35-0.361-0.525-0.803-0.525-1.328v-5.4h20.086v27.01c-1.643,1.277-3.355,2.389-5.137,3.34
				c-1.777,0.949-3.682,1.744-5.703,2.383c-2.025,0.637-4.195,1.113-6.508,1.422c-2.314,0.313-4.824,0.469-7.531,0.469
				c-4.746,0-9.1-0.877-13.055-2.629c-3.959-1.752-7.367-4.207-10.227-7.365c-2.861-3.16-5.09-6.949-6.688-11.369
				c-1.596-4.422-2.395-9.283-2.395-14.586c0-5.369,0.781-10.264,2.35-14.682c1.566-4.422,3.803-8.211,6.711-11.373
				c2.906-3.158,6.42-5.605,10.543-7.342c4.123-1.732,8.742-2.6,13.855-2.6c2.586,0,4.99,0.201,7.213,0.613
				c2.221,0.408,4.281,0.998,6.184,1.77c1.902,0.768,3.66,1.701,5.273,2.797s3.119,2.332,4.52,3.709l-2.51,4.318
				c-0.518,0.885-1.189,1.33-2.01,1.33c-0.488,0-1.02-0.182-1.596-0.545c-0.762-0.457-1.615-1.012-2.557-1.668
				c-0.945-0.654-2.096-1.283-3.447-1.889c-1.355-0.605-2.953-1.123-4.793-1.547c-1.844-0.428-4.025-0.643-6.553-0.643
				c-3.682,0-7.016,0.65-9.996,1.943c-2.984,1.293-5.523,3.143-7.623,5.547c-2.1,2.406-3.713,5.322-4.838,8.744
				c-1.129,3.422-1.688,7.26-1.688,11.516c0,4.451,0.584,8.422,1.756,11.908c1.172,3.488,2.822,6.441,4.953,8.863
				c2.129,2.426,4.656,4.275,7.576,5.553C-538.041,363.456-534.814,364.093-531.285,364.093z"/>
			<path fill="#1B354B" d="M-453.139,300.646v7.758h-31.404v23.379h25.426v7.465h-25.426v24.012h31.404v7.762h-40.303v-70.375
				H-453.139z"/>
			<path fill="#1B354B" d="M-407.104,348.062c0.32,0.867,0.633,1.742,0.936,2.627c0.305-0.916,0.625-1.793,0.959-2.627
				c0.334-0.836,0.715-1.678,1.141-2.531l22.139-43.264c0.396-0.754,0.807-1.213,1.234-1.377c0.424-0.162,1.031-0.244,1.826-0.244
				h6.525v70.375h-7.762v-51.713c0-0.688,0.018-1.424,0.047-2.211c0.031-0.787,0.078-1.586,0.137-2.408l-22.41,44.004
				c-0.762,1.473-1.826,2.211-3.197,2.211h-1.279c-1.367,0-2.434-0.738-3.193-2.211l-22.914-44.148
				c0.09,0.852,0.158,1.686,0.205,2.506c0.047,0.816,0.068,1.57,0.068,2.258v51.713h-7.762v-70.375h6.529
				c0.793,0,1.398,0.082,1.826,0.244c0.426,0.164,0.836,0.623,1.232,1.377l22.594,43.314
				C-407.795,346.366-407.424,347.192-407.104,348.062z"/>
		</g>
		<circle fill="#1B354B" cx="-770.866" cy="354.267" r="7.884"/>
		<circle fill="#1B354B" cx="-1043.26" cy="354.267" r="7.884"/>
	</g>
</g>
<g>
	<g>
		<path fill="#FFFFFF" d="M434.55,261.967c-4.618,0-8.212-1.501-10.99-4.58c-2.814-3.123-4.243-7.937-4.243-14.303V105.628
			c0-7.078,1.532-12.098,4.557-14.918c3.078-2.873,8.267-4.331,15.424-4.331h46.343c13.371,0,23.743,1.027,30.834,3.05
			c6.857,1.908,12.838,5.098,17.793,9.483c4.952,4.386,8.768,9.835,11.342,16.192c2.605,6.436,3.924,13.808,3.924,21.904
			c0,17.186-5.299,30.335-15.753,39.082c-10.604,8.875-26.8,13.377-48.14,13.377h-33.086c-1.596,0-2.891,1.294-2.891,2.891v50.481
			c0,6.44-1.464,11.311-4.353,14.473C442.45,260.444,438.93,261.967,434.55,261.967z M452.554,107.726
			c-1.596,0-2.891,1.294-2.891,2.889v54.497c0,1.597,1.295,2.89,2.891,2.89h24.328c8.768,0,16.238-0.945,22.207-2.808
			c6.288-1.959,11.182-5.259,14.542-9.796c3.362-4.547,5.065-10.488,5.065-17.655c0-8.587-2.594-15.717-7.712-21.194
			c-5.863-5.955-17.002-8.822-34.103-8.822H452.554z"/>
		<path fill="#FFFFFF" d="M713.353,261.967c-3.436,0-6.321-0.792-8.574-2.346c-2.447-1.692-4.591-3.875-6.373-6.488
			c-1.93-2.836-4.622-7.129-7.998-12.753l-14.476-24.09c-5.245-8.932-10.043-15.878-14.243-20.616
			c-4.374-4.94-8.935-8.389-13.55-10.252c-4.539-1.837-10.266-2.766-17.017-2.766h-12.649c-1.596,0-2.891,1.295-2.891,2.891v57.293
			c0,6.751-1.418,11.697-4.21,14.692c-2.784,2.983-6.352,4.435-10.903,4.435c-4.908,0-8.564-1.499-11.177-4.578
			c-2.691-3.174-4.057-8.072-4.057-14.549V105.628c0-6.956,1.475-11.957,4.384-14.864c2.908-2.91,7.91-4.385,14.865-4.385h58.751
			c7.955,0,14.837,0.341,20.457,1.015c5.438,0.651,10.391,1.982,14.716,3.955c5.289,2.227,9.968,5.408,13.979,9.492
			c3.995,4.071,7.075,8.875,9.156,14.279c2.091,5.438,3.152,11.287,3.152,17.389c0,12.477-3.52,22.532-10.465,29.888
			c-7.057,7.479-18.036,12.885-32.636,16.069c-1.183,0.26-2.08,1.229-2.244,2.429c-0.167,1.2,0.435,2.377,1.506,2.946
			c6.061,3.223,11.968,8.078,17.553,14.438c5.695,6.49,10.856,13.498,15.337,20.827c4.49,7.356,8.026,14.063,10.509,19.933
			c3.135,7.413,3.603,10.29,3.603,11.342c0,1.795-0.583,3.568-1.785,5.424c-1.235,1.896-2.887,3.364-5.043,4.477
			C718.857,261.399,716.274,261.967,713.353,261.967z M618.473,107.726c-1.596,0-2.891,1.294-2.891,2.889v49.021
			c0,1.597,1.295,2.892,2.891,2.892h32.356c8.882,0,16.486-0.786,22.604-2.339c6.479-1.643,11.54-4.524,15.042-8.574
			c3.575-4.133,5.387-9.781,5.387-16.791c0-5.504-1.432-10.441-4.255-14.681c-2.824-4.233-6.779-7.437-11.752-9.516
			c-4.614-1.951-13.142-2.9-26.051-2.9H618.473z"/>
		<path fill="#FFFFFF" d="M840.955,261.967c-13.508,0-25.746-2.201-36.373-6.538c-10.574-4.317-19.512-10.471-26.556-18.293
			c-7.073-7.852-12.498-17.447-16.129-28.525c-3.657-11.163-5.51-23.425-5.51-36.444c0-13.329,1.93-25.701,5.737-36.77
			c3.786-11.001,9.329-20.477,16.478-28.167c7.133-7.676,15.945-13.634,26.198-17.71c10.315-4.103,22.234-6.183,35.425-6.183
			c17.896,0,33.441,3.662,46.2,10.879c12.682,7.176,22.418,17.521,28.938,30.752c6.584,13.36,9.92,29.323,9.92,47.438
			c0,13.412-1.832,25.752-5.449,36.683c-3.59,10.84-9.035,20.356-16.189,28.287c-7.131,7.903-16.021,14.037-26.427,18.231
			C866.747,259.825,854.546,261.967,840.955,261.967z M840.226,106.265c-7.59,0-14.716,1.453-21.182,4.322
			c-6.493,2.883-12.156,7.13-16.843,12.628c-4.648,5.459-8.357,12.488-11.016,20.892c-2.634,8.315-3.967,17.757-3.967,28.06
			c0,10.381,1.332,19.92,3.964,28.35c2.658,8.534,6.494,15.737,11.397,21.404c4.918,5.692,10.661,10.019,17.071,12.858
			c6.385,2.825,13.469,4.26,21.063,4.26c9.728,0,18.801-2.47,26.963-7.342c8.211-4.9,14.811-12.522,19.62-22.649
			c4.746-9.996,7.153-22.404,7.153-36.881c0-13.396-2.212-25.209-6.573-35.104c-4.435-10.062-10.886-17.799-19.173-22.996
			C860.445,108.89,850.864,106.265,840.226,106.265z"/>
		<path fill="#FFFFFF" d="M982.189,258.925c-6.01,0-10.504-0.865-13.359-2.569c-2.691-1.607-4.393-3.798-5.207-6.697
			c-0.939-3.334-1.412-7.795-1.412-13.265V105.628c0-6.956,1.475-11.957,4.383-14.864c2.908-2.91,7.91-4.385,14.863-4.385h47.076
			c11.939,0,22.293,1.114,30.779,3.313c8.277,2.146,15.9,6.232,22.662,12.149c17.836,15.271,26.867,38.922,26.867,70.324
			c0,10.466-0.92,20.127-2.734,28.719c-1.797,8.521-4.605,16.296-8.342,23.11c-3.723,6.786-8.564,12.941-14.385,18.301
			c-4.516,4.057-9.549,7.371-14.936,9.836c-5.412,2.474-11.324,4.239-17.566,5.247c-6.346,1.025-13.615,1.546-21.615,1.546H982.189z
			 M995.445,109.185c-1.596,0-2.891,1.293-2.891,2.891v121.032c0,1.598,1.295,2.891,2.891,2.891h27.371
			c6.061,0,10.902-0.166,14.383-0.499c3.627-0.346,7.422-1.216,11.279-2.588c3.975-1.412,7.486-3.44,10.428-6.025
			c12.66-10.708,19.104-29.212,19.104-54.964c0-18.053-2.82-31.858-8.387-41.032c-5.662-9.342-12.818-15.395-21.266-17.99
			c-8.023-2.464-17.807-3.715-29.07-3.715H995.445z"/>
		<path fill="#FFFFFF" d="M1221.453,261.967c-13.359,0-24.992-1.454-34.566-4.319c-9.387-2.807-17.123-7.189-23.002-13.028
			c-5.869-5.831-10.246-13.442-13.01-22.622c-2.826-9.365-4.258-20.771-4.258-33.896v-85.758c0-6.527,1.408-11.402,4.184-14.489
			c2.734-3.038,6.27-4.517,10.807-4.517c4.785,0,8.439,1.479,11.176,4.518c2.771,3.086,4.178,7.961,4.178,14.488v87.704
			c0,10.23,1.178,18.95,3.498,25.91c2.424,7.295,6.807,13.043,13.021,17.08c6.123,3.982,14.676,6.001,25.42,6.001
			c14.984,0,25.82-4.16,32.203-12.367c6.217-7.988,9.367-20.064,9.367-35.896v-88.433c0-6.609,1.389-11.505,4.123-14.551
			c2.699-2.997,6.254-4.455,10.867-4.455c4.641,0,8.264,1.471,11.084,4.496c2.838,3.04,4.275,7.922,4.275,14.51v85.758
			c0,13.61-1.332,25.085-3.961,34.102c-2.561,8.781-7.467,16.608-14.588,23.269c-6.133,5.674-13.383,9.882-21.533,12.496
			C1242.465,260.619,1232.609,261.967,1221.453,261.967z"/>
		<path fill="#FFFFFF" d="M1397.469,261.967c-16.994,0-31.158-3.225-42.096-9.584c-7.658-4.52-13.98-10.646-18.773-18.209
			c-4.748-7.472-7.154-14.788-7.154-21.744c0-3.631,1.223-6.652,3.74-9.237c2.496-2.563,5.623-3.809,9.549-3.809
			c3.082,0,5.602,0.943,7.707,2.883c2.295,2.122,4.32,5.404,6.018,9.752c2.346,5.868,4.928,10.852,7.678,14.83
			c2.891,4.184,6.99,7.669,12.18,10.347c5.168,2.674,11.959,4.031,20.178,4.031c11.297,0,20.654-2.708,27.822-8.053
			c7.432-5.537,11.201-12.601,11.201-20.989c0-6.668-2.1-12.196-6.24-16.434c-3.92-4.004-9.008-7.089-15.125-9.171
			c-5.771-1.965-13.582-4.081-23.213-6.283c-12.545-2.937-23.18-6.411-31.604-10.326c-8.15-3.787-14.691-9.005-19.441-15.506
			c-4.676-6.399-7.047-14.522-7.047-24.144c0-9.164,2.525-17.404,7.504-24.491c5-7.124,12.385-12.694,21.949-16.56
			c9.748-3.936,21.414-5.934,34.682-5.934c10.58,0,19.824,1.32,27.475,3.922c7.605,2.589,13.979,6.049,18.938,10.287
			c4.949,4.221,8.596,8.678,10.84,13.247c2.229,4.528,3.355,8.97,3.355,13.202c0,3.601-1.256,6.774-3.84,9.707
			c-2.488,2.817-5.498,4.188-9.205,4.188c-3.346,0-5.842-0.771-7.422-2.291c-1.924-1.852-4.094-5.025-6.445-9.438
			c-3.365-6.975-7.551-12.601-12.385-16.613c-5.125-4.256-12.893-6.324-23.744-6.324c-9.896,0-18.055,2.249-24.244,6.684
			c-6.49,4.648-9.783,10.41-9.783,17.129c0,4.188,1.174,7.882,3.492,10.976c2.188,2.918,5.201,5.439,8.957,7.495
			c3.564,1.954,7.23,3.505,10.893,4.611c3.521,1.065,9.375,2.632,17.398,4.658c9.967,2.33,19.057,4.921,27.07,7.71
			c7.852,2.737,14.609,6.091,20.08,9.97c5.309,3.769,9.506,8.6,12.482,14.354c2.973,5.766,4.48,12.996,4.48,21.483
			c0,10.165-2.648,19.419-7.871,27.503c-5.223,8.08-13.01,14.517-23.152,19.128C1424.074,259.6,1411.666,261.967,1397.469,261.967z"
			/>
		<path fill="#FFFFFF" d="M1578.107,261.967c-13.51,0-25.748-2.201-36.375-6.538c-10.576-4.317-19.512-10.471-26.555-18.293
			c-7.074-7.855-12.498-17.45-16.127-28.525c-3.656-11.163-5.51-23.425-5.51-36.444c0-13.326,1.93-25.697,5.738-36.771
			c3.783-10.995,9.326-20.471,16.479-28.166c7.127-7.672,15.939-13.631,26.197-17.71c10.316-4.103,22.236-6.183,35.424-6.183
			c17.898,0,33.441,3.662,46.197,10.879c12.682,7.176,22.418,17.521,28.936,30.752c6.584,13.356,9.922,29.318,9.922,47.438
			c0,13.412-1.834,25.752-5.451,36.683c-3.584,10.834-9.029,20.351-16.186,28.287c-7.131,7.903-16.023,14.037-26.428,18.231
			C1603.9,259.825,1591.701,261.967,1578.107,261.967z M1577.379,106.265c-7.59,0-14.717,1.453-21.182,4.322
			c-6.492,2.883-12.16,7.132-16.842,12.628c-4.645,5.452-8.354,12.48-11.02,20.891c-2.631,8.32-3.967,17.761-3.967,28.061
			c0,10.376,1.334,19.915,3.965,28.35c2.664,8.542,6.5,15.743,11.4,21.407c4.914,5.688,10.656,10.014,17.066,12.855
			c6.383,2.825,13.473,4.26,21.066,4.26c9.725,0,18.797-2.47,26.961-7.342c8.209-4.9,14.809-12.522,19.621-22.648
			c4.748-10.006,7.154-22.412,7.154-36.882c0-13.395-2.211-25.203-6.574-35.104c-4.434-10.058-10.881-17.796-19.17-22.996
			C1597.598,108.89,1588.018,106.265,1577.379,106.265z"/>
		<path fill="#FFFFFF" d="M1849.85,261.967c-3.963,0-7.121-1.361-9.652-4.159c-2.572-2.842-3.875-7.348-3.875-13.389v-123.1
			c0-1.459-1.086-2.689-2.535-2.869c-0.119-0.015-0.24-0.021-0.357-0.021c-1.309,0-2.475,0.887-2.801,2.186l-28.584,113.613
			c-1.846,7.284-3.355,12.672-4.498,16.007c-1.01,2.962-2.928,5.726-5.701,8.214c-2.6,2.333-6.369,3.519-11.207,3.519
			c-3.646,0-6.734-0.774-9.174-2.301c-2.502-1.565-4.463-3.574-5.832-5.973c-1.498-2.619-2.691-5.564-3.551-8.749
			c-0.928-3.44-1.881-7.018-2.85-10.741l-28.58-113.589c-0.326-1.299-1.492-2.186-2.799-2.186c-0.121,0-0.238,0.007-0.359,0.021
			c-1.447,0.18-2.535,1.41-2.535,2.869v123.1c0,6.045-1.289,10.555-3.83,13.402c-2.486,2.79-5.738,4.146-9.943,4.146
			c-4.061,0-7.262-1.345-9.787-4.111c-2.568-2.794-3.867-7.315-3.867-13.437V103.316c0-6.727,1.613-11.218,4.797-13.353
			c3.551-2.379,8.537-3.585,14.816-3.585h11.191c6.33,0,10.898,0.544,13.578,1.616c2.354,0.94,4.053,2.607,5.203,5.099
			c1.383,2.992,3.002,8.026,4.814,14.968l25.912,97.687c0.338,1.268,1.484,2.149,2.795,2.149c1.313,0,2.457-0.882,2.795-2.149
			l25.908-97.677c1.816-6.941,3.438-11.979,4.818-14.98c1.146-2.486,2.85-4.154,5.199-5.094c2.686-1.074,7.256-1.618,13.586-1.618
			h11.193c6.273,0,11.256,1.206,14.809,3.586c3.186,2.136,4.801,6.628,4.801,13.352v141.103c0,6.049-1.287,10.559-3.826,13.402
			C1857.43,260.611,1854.137,261.967,1849.85,261.967z"/>
	</g>
	<g>
		<path fill="#FFFFFF" d="M221.223,284.278c0,8.577-6.95,15.527-15.532,15.527h-42.313c-8.573,0-15.532-6.95-15.532-15.527
			c0-8.572,6.959-15.531,15.532-15.531h42.313C214.272,268.747,221.223,275.706,221.223,284.278z"/>
		<g>
			<path fill="#FFFFFF" d="M344.023,126.045c-2.467-6.51-6.003-12.495-10.383-17.745c-2.727-3.266-5.781-6.244-9.115-8.889
				c-10.6-8.42-24.008-13.443-38.587-13.443H71.778c-8.576,0-15.527,6.955-15.527,15.532c0,8.574,6.951,15.526,15.527,15.526
				h219.884c6.405,0,12.203,2.586,16.417,6.768l0.175-0.254c0.928,1.139,1.801,2.332,2.595,3.573
				c0.012,0.01,0.022,0.026,0.033,0.043c0.695,1.01,1.306,2.072,1.834,3.188l0.033,0.066c2.715,5.299,4.248,11.305,4.248,17.674
				c0,6.282-1.492,12.218-4.142,17.464c-0.011,0.018-0.017,0.033-0.021,0.044c-0.701,1.549-1.563,3.007-2.568,4.349
				c-0.011,0.017-0.021,0.034-0.033,0.045c-4.251,5.654-11.015,9.315-18.633,9.315H129.519c-8.576,0-15.532,6.955-15.532,15.531
				s6.956,15.527,15.532,15.527h157.633l0.123-0.178c18.015-0.378,34.146-8.43,45.246-21.021
				c9.666-10.945,15.53-25.328,15.53-41.076C348.051,140.324,346.624,132.894,344.023,126.045z"/>
			<path fill="#FFFFFF" d="M310.266,169.941c0.944-1.386,1.801-2.838,2.568-4.349L310.266,169.941z"/>
			<path fill="#FFFFFF" d="M312.716,130.345c-0.566-1.095-1.177-2.158-1.834-3.188L312.716,130.345z"/>
			<path fill="#FFFFFF" d="M310.849,127.113c-0.821-1.192-1.749-2.305-2.77-3.319L310.849,127.113z"/>
		</g>
	</g>
	<g>
		<g>
			<path fill="#FFFFFF" d="M686.501,363.015h28.302v8.006h-37.157v-70.375h8.855V363.015z"/>
			<path fill="#FFFFFF" d="M749.997,363.456c2.708,0,5.127-0.49,7.258-1.473c2.13-0.982,3.933-2.357,5.409-4.125
				c1.476-1.768,2.601-3.879,3.378-6.334c0.775-2.457,1.164-5.158,1.164-8.107v-42.771h8.81v42.771
				c0,4.064-0.601,7.828-1.802,11.299c-1.203,3.471-2.923,6.473-5.159,9.012c-2.237,2.537-4.969,4.525-8.194,5.965
				c-3.225,1.441-6.847,2.162-10.863,2.162c-4.018,0-7.639-0.721-10.863-2.162c-3.229-1.439-5.966-3.428-8.218-5.965
				c-2.254-2.539-3.979-5.541-5.181-9.012c-1.204-3.471-1.803-7.234-1.803-11.299v-42.771h8.809v42.727
				c0,2.945,0.389,5.646,1.165,8.104c0.776,2.453,1.9,4.564,3.376,6.332c1.478,1.77,3.288,3.15,5.435,4.152
				C744.861,362.958,747.288,363.456,749.997,363.456z"/>
			<path fill="#FFFFFF" d="M836.772,300.646v3.535c0,1.113-0.319,2.162-0.959,3.141l-37.02,55.938h37.341v7.762H787.2v-3.734
				c0-0.98,0.287-1.914,0.867-2.799l37.064-56.084h-36.198v-7.758H836.772z"/>
			<path fill="#FFFFFF" d="M952.17,311.644c-0.271,0.492-0.561,0.859-0.866,1.107c-0.307,0.246-0.701,0.365-1.188,0.365
				c-0.52,0-1.119-0.275-1.805-0.834c-0.686-0.557-1.551-1.17-2.602-1.84c-1.049-0.67-2.313-1.285-3.789-1.842
				c-1.477-0.555-3.264-0.834-5.363-0.834c-1.977,0-3.729,0.287-5.249,0.859c-1.523,0.572-2.793,1.348-3.813,2.332
				c-1.021,0.982-1.791,2.135-2.307,3.463c-0.518,1.324-0.775,2.76-0.775,4.297c0,1.963,0.449,3.592,1.348,4.887
				c0.895,1.293,2.084,2.398,3.561,3.314c1.475,0.918,3.148,1.711,5.022,2.383c1.871,0.67,3.789,1.365,5.752,2.086
				c1.961,0.719,3.879,1.529,5.75,2.432c1.873,0.9,3.545,2.037,5.021,3.412c1.478,1.375,2.665,3.061,3.562,5.059
				c0.898,1.998,1.348,4.453,1.348,7.367c0,3.076-0.486,5.967-1.461,8.666c-0.975,2.703-2.396,5.051-4.271,7.049
				c-1.871,1.996-4.168,3.566-6.893,4.713c-2.723,1.146-5.818,1.721-9.287,1.721c-4.233,0-8.091-0.826-11.575-2.48
				s-6.459-3.887-8.924-6.705l2.555-4.516c0.244-0.361,0.541-0.666,0.893-0.91c0.348-0.246,0.736-0.369,1.164-0.369
				c0.639,0,1.369,0.369,2.189,1.107c0.82,0.736,1.85,1.545,3.082,2.43s2.723,1.695,4.475,2.432c1.75,0.736,3.887,1.105,6.415,1.105
				c2.1,0,3.971-0.313,5.613-0.934s3.037-1.496,4.178-2.629c1.141-1.129,2.016-2.479,2.625-4.051
				c0.607-1.57,0.912-3.322,0.912-5.256c0-2.127-0.449-3.871-1.346-5.229c-0.898-1.359-2.078-2.496-3.537-3.412
				c-1.463-0.918-3.129-1.695-5-2.334s-3.787-1.295-5.753-1.965c-1.963-0.672-3.881-1.449-5.752-2.332
				c-1.871-0.885-3.539-2.031-4.998-3.439c-1.461-1.406-2.641-3.166-3.539-5.281c-0.898-2.107-1.348-4.721-1.348-7.83
				c0-2.488,0.449-4.895,1.348-7.219s2.199-4.389,3.904-6.189c1.703-1.797,3.811-3.24,6.322-4.318
				c2.512-1.082,5.395-1.621,8.651-1.621c3.652,0,6.984,0.621,9.998,1.863c3.012,1.246,5.646,3.047,7.897,5.404L952.17,311.644z"/>
			<path fill="#FFFFFF" d="M1027.809,335.856c0,5.27-0.777,10.109-2.328,14.512c-1.553,4.404-3.744,8.193-6.572,11.367
				c-2.832,3.178-6.232,5.641-10.203,7.393c-3.971,1.754-8.361,2.629-13.168,2.629c-4.811,0-9.191-0.875-13.146-2.629
				c-3.957-1.752-7.35-4.215-10.18-7.393c-2.83-3.174-5.021-6.963-6.574-11.367c-1.553-4.402-2.328-9.242-2.328-14.512
				c0-5.271,0.775-10.109,2.328-14.514c1.553-4.4,3.744-8.199,6.574-11.393c2.83-3.191,6.223-5.672,10.18-7.441
				c3.955-1.768,8.336-2.648,13.146-2.648c4.807,0,9.197,0.881,13.168,2.648c3.971,1.77,7.371,4.25,10.203,7.441
				c2.828,3.193,5.02,6.992,6.572,11.393C1027.031,325.747,1027.809,330.585,1027.809,335.856z M1018.725,335.856
				c0-4.322-0.547-8.199-1.643-11.639c-1.098-3.438-2.648-6.344-4.656-8.719c-2.01-2.373-4.445-4.195-7.303-5.475
				c-2.861-1.275-6.057-1.918-9.586-1.918c-3.5,0-6.682,0.643-9.541,1.918c-2.859,1.279-5.303,3.102-7.326,5.475
				c-2.023,2.375-3.584,5.281-4.68,8.719c-1.096,3.439-1.643,7.316-1.643,11.639c0,4.32,0.547,8.193,1.643,11.617
				c1.096,3.418,2.656,6.316,4.68,8.689s4.467,4.191,7.326,5.451c2.859,1.262,6.041,1.891,9.541,1.891
				c3.529,0,6.725-0.629,9.586-1.891c2.857-1.26,5.293-3.078,7.303-5.451c2.008-2.373,3.559-5.271,4.656-8.689
				C1018.178,344.05,1018.725,340.177,1018.725,335.856z"/>
			<path fill="#FFFFFF" d="M1073.205,348.062c0.318,0.867,0.629,1.742,0.934,2.627c0.305-0.916,0.623-1.793,0.961-2.627
				c0.334-0.836,0.713-1.678,1.139-2.531l22.139-43.264c0.396-0.754,0.807-1.213,1.232-1.377c0.426-0.162,1.033-0.244,1.828-0.244
				h6.525v70.375h-7.76v-51.713c0-0.688,0.016-1.424,0.047-2.211c0.029-0.787,0.074-1.586,0.137-2.408l-22.414,44.004
				c-0.762,1.473-1.826,2.211-3.195,2.211h-1.277c-1.369,0-2.436-0.738-3.195-2.211l-22.914-44.148
				c0.092,0.852,0.16,1.686,0.205,2.506c0.047,0.816,0.068,1.57,0.068,2.258v51.713h-7.76v-70.375h6.527
				c0.791,0,1.4,0.082,1.826,0.244c0.426,0.164,0.836,0.623,1.234,1.377l22.592,43.314
				C1072.512,346.366,1072.885,347.192,1073.205,348.062z"/>
			<path fill="#FFFFFF" d="M1197.863,371.021h-8.855v-70.375h8.855V371.021z"/>
			<path fill="#FFFFFF" d="M1247.287,348.062c0.32,0.867,0.633,1.742,0.936,2.627c0.305-0.916,0.625-1.793,0.959-2.627
				c0.338-0.836,0.717-1.678,1.143-2.531l22.139-43.264c0.395-0.754,0.805-1.213,1.232-1.377c0.428-0.162,1.035-0.244,1.826-0.244
				h6.529v70.375h-7.762v-51.713c0-0.688,0.014-1.424,0.047-2.211c0.029-0.787,0.074-1.586,0.137-2.408l-22.414,44.004
				c-0.76,1.473-1.826,2.211-3.195,2.211h-1.277c-1.369,0-2.436-0.738-3.193-2.211l-22.916-44.148
				c0.09,0.852,0.158,1.686,0.205,2.506c0.045,0.816,0.068,1.57,0.068,2.258v51.713h-7.762v-70.375h6.527
				c0.791,0,1.402,0.082,1.826,0.244c0.428,0.164,0.838,0.623,1.234,1.377l22.594,43.314
				C1246.596,346.366,1246.971,347.192,1247.287,348.062z"/>
			<path fill="#FFFFFF" d="M1353.201,371.021h-6.846c-0.791,0-1.432-0.215-1.918-0.641c-0.488-0.426-0.852-0.965-1.096-1.619
				l-6.115-16.994h-29.354l-6.115,16.994c-0.215,0.588-0.578,1.111-1.096,1.572c-0.518,0.457-1.158,0.688-1.918,0.688h-6.848
				l26.156-70.375h8.992L1353.201,371.021z M1310.338,344.894h24.422l-10.271-28.629c-0.668-1.77-1.322-3.982-1.963-6.631
				c-0.334,1.34-0.662,2.574-0.979,3.705c-0.32,1.131-0.633,2.121-0.938,2.971L1310.338,344.894z"/>
			<path fill="#FFFFFF" d="M1388.715,364.093c1.766,0,3.385-0.088,4.861-0.268c1.475-0.18,2.869-0.451,4.178-0.811
				c1.309-0.361,2.541-0.795,3.699-1.303c1.154-0.506,2.311-1.086,3.467-1.744V344.45h-10.135c-0.576,0-1.043-0.178-1.391-0.539
				c-0.35-0.361-0.525-0.803-0.525-1.328v-5.4h20.086v27.01c-1.643,1.277-3.355,2.389-5.137,3.34
				c-1.777,0.949-3.682,1.744-5.703,2.383c-2.025,0.637-4.195,1.113-6.508,1.422c-2.314,0.313-4.824,0.469-7.531,0.469
				c-4.746,0-9.1-0.877-13.055-2.629c-3.959-1.752-7.367-4.207-10.227-7.365c-2.861-3.16-5.09-6.949-6.688-11.369
				c-1.596-4.422-2.395-9.283-2.395-14.586c0-5.369,0.781-10.264,2.35-14.682c1.566-4.422,3.803-8.211,6.711-11.373
				c2.906-3.158,6.42-5.605,10.543-7.342c4.123-1.732,8.742-2.6,13.855-2.6c2.586,0,4.99,0.201,7.213,0.613
				c2.221,0.408,4.281,0.998,6.184,1.77c1.902,0.768,3.66,1.701,5.273,2.797s3.119,2.332,4.52,3.709l-2.51,4.318
				c-0.518,0.885-1.189,1.33-2.01,1.33c-0.488,0-1.02-0.182-1.596-0.545c-0.762-0.457-1.615-1.012-2.557-1.668
				c-0.945-0.654-2.096-1.283-3.447-1.889c-1.355-0.605-2.953-1.123-4.793-1.547c-1.844-0.428-4.025-0.643-6.553-0.643
				c-3.682,0-7.016,0.65-9.996,1.943c-2.984,1.293-5.523,3.143-7.623,5.547c-2.1,2.406-3.713,5.322-4.838,8.744
				c-1.129,3.422-1.688,7.26-1.688,11.516c0,4.451,0.584,8.422,1.756,11.908c1.172,3.488,2.822,6.441,4.953,8.863
				c2.129,2.426,4.656,4.275,7.576,5.553C1381.959,363.456,1385.186,364.093,1388.715,364.093z"/>
			<path fill="#FFFFFF" d="M1466.861,300.646v7.758h-31.404v23.379h25.426v7.465h-25.426v24.012h31.404v7.762h-40.303v-70.375
				H1466.861z"/>
			<path fill="#FFFFFF" d="M1512.896,348.062c0.32,0.867,0.633,1.742,0.936,2.627c0.305-0.916,0.625-1.793,0.959-2.627
				c0.334-0.836,0.715-1.678,1.141-2.531l22.139-43.264c0.396-0.754,0.807-1.213,1.234-1.377c0.424-0.162,1.031-0.244,1.826-0.244
				h6.525v70.375h-7.762v-51.713c0-0.688,0.018-1.424,0.047-2.211c0.031-0.787,0.078-1.586,0.137-2.408l-22.41,44.004
				c-0.762,1.473-1.826,2.211-3.197,2.211h-1.279c-1.367,0-2.434-0.738-3.193-2.211l-22.914-44.148
				c0.09,0.852,0.158,1.686,0.205,2.506c0.047,0.816,0.068,1.57,0.068,2.258v51.713h-7.762v-70.375h6.529
				c0.793,0,1.398,0.082,1.826,0.244c0.426,0.164,0.836,0.623,1.232,1.377l22.594,43.314
				C1512.205,346.366,1512.576,347.192,1512.896,348.062z"/>
		</g>
		<circle fill="#FFFFFF" cx="1149.134" cy="354.267" r="7.884"/>
		<circle fill="#FFFFFF" cx="876.74" cy="354.267" r="7.884"/>
	</g>
</g>
<g>
	<g>
		<path d="M2354.55,261.967c-4.618,0-8.212-1.501-10.99-4.58c-2.814-3.123-4.243-7.937-4.243-14.303V105.628
			c0-7.078,1.532-12.098,4.557-14.918c3.078-2.873,8.267-4.331,15.424-4.331h46.343c13.371,0,23.743,1.027,30.834,3.05
			c6.857,1.908,12.838,5.098,17.793,9.483c4.952,4.386,8.768,9.835,11.342,16.192c2.605,6.436,3.924,13.808,3.924,21.904
			c0,17.186-5.299,30.335-15.753,39.082c-10.604,8.875-26.8,13.377-48.14,13.377h-33.086c-1.596,0-2.891,1.294-2.891,2.891v50.481
			c0,6.44-1.464,11.311-4.353,14.473C2362.45,260.444,2358.93,261.967,2354.55,261.967z M2372.554,107.726
			c-1.596,0-2.891,1.294-2.891,2.889v54.497c0,1.597,1.295,2.89,2.891,2.89h24.328c8.768,0,16.238-0.945,22.207-2.808
			c6.288-1.959,11.182-5.259,14.542-9.796c3.362-4.547,5.065-10.488,5.065-17.655c0-8.587-2.594-15.717-7.712-21.194
			c-5.863-5.955-17.002-8.822-34.103-8.822H2372.554z"/>
		<path d="M2633.353,261.967c-3.436,0-6.321-0.792-8.574-2.346c-2.447-1.692-4.591-3.875-6.373-6.488
			c-1.93-2.836-4.622-7.129-7.998-12.753l-14.476-24.09c-5.245-8.932-10.043-15.878-14.243-20.616
			c-4.374-4.94-8.935-8.389-13.55-10.252c-4.539-1.837-10.266-2.766-17.017-2.766h-12.649c-1.596,0-2.891,1.295-2.891,2.891v57.293
			c0,6.751-1.418,11.697-4.21,14.692c-2.784,2.983-6.352,4.435-10.903,4.435c-4.908,0-8.564-1.499-11.177-4.578
			c-2.691-3.174-4.057-8.072-4.057-14.549V105.628c0-6.956,1.475-11.957,4.384-14.864c2.908-2.91,7.91-4.385,14.865-4.385h58.751
			c7.955,0,14.837,0.341,20.457,1.015c5.438,0.651,10.391,1.982,14.716,3.955c5.289,2.227,9.968,5.408,13.979,9.492
			c3.995,4.071,7.075,8.875,9.156,14.279c2.091,5.438,3.152,11.287,3.152,17.389c0,12.477-3.52,22.532-10.465,29.888
			c-7.057,7.479-18.036,12.885-32.636,16.069c-1.183,0.26-2.08,1.229-2.244,2.429c-0.167,1.2,0.435,2.377,1.506,2.946
			c6.061,3.223,11.968,8.078,17.553,14.438c5.695,6.49,10.856,13.498,15.337,20.827c4.49,7.356,8.026,14.063,10.509,19.933
			c3.135,7.413,3.603,10.29,3.603,11.342c0,1.795-0.583,3.568-1.785,5.424c-1.235,1.896-2.887,3.364-5.043,4.477
			C2638.857,261.399,2636.274,261.967,2633.353,261.967z M2538.473,107.726c-1.596,0-2.891,1.294-2.891,2.889v49.021
			c0,1.597,1.295,2.892,2.891,2.892h32.356c8.882,0,16.486-0.786,22.604-2.339c6.479-1.643,11.54-4.524,15.042-8.574
			c3.575-4.133,5.387-9.781,5.387-16.791c0-5.504-1.432-10.441-4.255-14.681c-2.824-4.233-6.779-7.437-11.752-9.516
			c-4.614-1.951-13.142-2.9-26.051-2.9H2538.473z"/>
		<path d="M2760.955,261.967c-13.508,0-25.746-2.201-36.373-6.538c-10.574-4.317-19.512-10.471-26.556-18.293
			c-7.073-7.852-12.498-17.447-16.129-28.525c-3.657-11.163-5.51-23.425-5.51-36.444c0-13.329,1.93-25.701,5.737-36.77
			c3.786-11.001,9.329-20.477,16.478-28.167c7.133-7.676,15.945-13.634,26.198-17.71c10.315-4.103,22.234-6.183,35.425-6.183
			c17.896,0,33.441,3.662,46.2,10.879c12.682,7.176,22.418,17.521,28.938,30.752c6.584,13.36,9.92,29.323,9.92,47.438
			c0,13.412-1.832,25.752-5.449,36.683c-3.59,10.84-9.035,20.356-16.189,28.287c-7.131,7.903-16.021,14.037-26.427,18.231
			C2786.747,259.825,2774.546,261.967,2760.955,261.967z M2760.226,106.265c-7.59,0-14.716,1.453-21.182,4.322
			c-6.493,2.883-12.156,7.13-16.843,12.628c-4.648,5.459-8.357,12.488-11.016,20.892c-2.634,8.315-3.967,17.757-3.967,28.06
			c0,10.381,1.332,19.92,3.964,28.35c2.658,8.534,6.494,15.737,11.397,21.404c4.918,5.692,10.661,10.019,17.071,12.858
			c6.385,2.825,13.469,4.26,21.063,4.26c9.728,0,18.801-2.47,26.963-7.342c8.211-4.9,14.811-12.522,19.62-22.649
			c4.746-9.996,7.153-22.404,7.153-36.881c0-13.396-2.212-25.209-6.573-35.104c-4.435-10.062-10.886-17.799-19.173-22.996
			C2780.445,108.89,2770.864,106.265,2760.226,106.265z"/>
		<path d="M2902.189,258.925c-6.01,0-10.504-0.865-13.359-2.569c-2.691-1.607-4.393-3.798-5.207-6.697
			c-0.939-3.334-1.412-7.795-1.412-13.265V105.628c0-6.956,1.475-11.957,4.383-14.864c2.908-2.91,7.91-4.385,14.863-4.385h47.076
			c11.939,0,22.293,1.114,30.779,3.313c8.277,2.146,15.9,6.232,22.662,12.149c17.836,15.271,26.867,38.922,26.867,70.324
			c0,10.466-0.92,20.127-2.734,28.719c-1.797,8.521-4.605,16.296-8.342,23.11c-3.723,6.786-8.564,12.941-14.385,18.301
			c-4.516,4.057-9.549,7.371-14.936,9.836c-5.412,2.474-11.324,4.239-17.566,5.247c-6.346,1.025-13.615,1.546-21.615,1.546H2902.189
			z M2915.445,109.185c-1.596,0-2.891,1.293-2.891,2.891v121.032c0,1.598,1.295,2.891,2.891,2.891h27.371
			c6.061,0,10.902-0.166,14.383-0.499c3.627-0.346,7.422-1.216,11.279-2.588c3.975-1.412,7.486-3.44,10.428-6.025
			c12.66-10.708,19.104-29.212,19.104-54.964c0-18.053-2.82-31.858-8.387-41.032c-5.662-9.342-12.818-15.395-21.266-17.99
			c-8.023-2.464-17.807-3.715-29.07-3.715H2915.445z"/>
		<path d="M3141.453,261.967c-13.359,0-24.992-1.454-34.566-4.319c-9.387-2.807-17.123-7.189-23.002-13.028
			c-5.869-5.831-10.246-13.442-13.01-22.622c-2.826-9.365-4.258-20.771-4.258-33.896v-85.758c0-6.527,1.408-11.402,4.184-14.489
			c2.734-3.038,6.27-4.517,10.807-4.517c4.785,0,8.439,1.479,11.176,4.518c2.771,3.086,4.178,7.961,4.178,14.488v87.704
			c0,10.23,1.178,18.95,3.498,25.91c2.424,7.295,6.807,13.043,13.021,17.08c6.123,3.982,14.676,6.001,25.42,6.001
			c14.984,0,25.82-4.16,32.203-12.367c6.217-7.988,9.367-20.064,9.367-35.896v-88.433c0-6.609,1.389-11.505,4.123-14.551
			c2.699-2.997,6.254-4.455,10.867-4.455c4.641,0,8.264,1.471,11.084,4.496c2.838,3.04,4.275,7.922,4.275,14.51v85.758
			c0,13.61-1.332,25.085-3.961,34.102c-2.561,8.781-7.467,16.608-14.588,23.269c-6.133,5.674-13.383,9.882-21.533,12.496
			C3162.465,260.619,3152.609,261.967,3141.453,261.967z"/>
		<path d="M3317.469,261.967c-16.994,0-31.158-3.225-42.096-9.584c-7.658-4.52-13.98-10.646-18.773-18.209
			c-4.748-7.472-7.154-14.788-7.154-21.744c0-3.631,1.223-6.652,3.74-9.237c2.496-2.563,5.623-3.809,9.549-3.809
			c3.082,0,5.602,0.943,7.707,2.883c2.295,2.122,4.32,5.404,6.018,9.752c2.346,5.868,4.928,10.852,7.678,14.83
			c2.891,4.184,6.99,7.669,12.18,10.347c5.168,2.674,11.959,4.031,20.178,4.031c11.297,0,20.654-2.708,27.822-8.053
			c7.432-5.537,11.201-12.601,11.201-20.989c0-6.668-2.1-12.196-6.24-16.434c-3.92-4.004-9.008-7.089-15.125-9.171
			c-5.771-1.965-13.582-4.081-23.213-6.283c-12.545-2.937-23.18-6.411-31.604-10.326c-8.15-3.787-14.691-9.005-19.441-15.506
			c-4.676-6.399-7.047-14.522-7.047-24.144c0-9.164,2.525-17.404,7.504-24.491c5-7.124,12.385-12.694,21.949-16.56
			c9.748-3.936,21.414-5.934,34.682-5.934c10.58,0,19.824,1.32,27.475,3.922c7.605,2.589,13.979,6.049,18.938,10.287
			c4.949,4.221,8.596,8.678,10.84,13.247c2.229,4.528,3.355,8.97,3.355,13.202c0,3.601-1.256,6.774-3.84,9.707
			c-2.488,2.817-5.498,4.188-9.205,4.188c-3.346,0-5.842-0.771-7.422-2.291c-1.924-1.852-4.094-5.025-6.445-9.438
			c-3.365-6.975-7.551-12.601-12.385-16.613c-5.125-4.256-12.893-6.324-23.744-6.324c-9.896,0-18.055,2.249-24.244,6.684
			c-6.49,4.648-9.783,10.41-9.783,17.129c0,4.188,1.174,7.882,3.492,10.976c2.188,2.918,5.201,5.439,8.957,7.495
			c3.564,1.954,7.23,3.505,10.893,4.611c3.521,1.065,9.375,2.632,17.398,4.658c9.967,2.33,19.057,4.921,27.07,7.71
			c7.852,2.737,14.609,6.091,20.08,9.97c5.309,3.769,9.506,8.6,12.482,14.354c2.973,5.766,4.48,12.996,4.48,21.483
			c0,10.165-2.648,19.419-7.871,27.503c-5.223,8.08-13.01,14.517-23.152,19.128C3344.074,259.6,3331.666,261.967,3317.469,261.967z"
			/>
		<path d="M3498.107,261.967c-13.51,0-25.748-2.201-36.375-6.538c-10.576-4.317-19.512-10.471-26.555-18.293
			c-7.074-7.855-12.498-17.45-16.127-28.525c-3.656-11.163-5.51-23.425-5.51-36.444c0-13.326,1.93-25.697,5.738-36.771
			c3.783-10.995,9.326-20.471,16.479-28.166c7.127-7.672,15.939-13.631,26.197-17.71c10.316-4.103,22.236-6.183,35.424-6.183
			c17.898,0,33.441,3.662,46.197,10.879c12.682,7.176,22.418,17.521,28.936,30.752c6.584,13.356,9.922,29.318,9.922,47.438
			c0,13.412-1.834,25.752-5.451,36.683c-3.584,10.834-9.029,20.351-16.186,28.287c-7.131,7.903-16.023,14.037-26.428,18.231
			C3523.9,259.825,3511.701,261.967,3498.107,261.967z M3497.379,106.265c-7.59,0-14.717,1.453-21.182,4.322
			c-6.492,2.883-12.16,7.132-16.842,12.628c-4.645,5.452-8.354,12.48-11.02,20.891c-2.631,8.32-3.967,17.761-3.967,28.061
			c0,10.376,1.334,19.915,3.965,28.35c2.664,8.542,6.5,15.743,11.4,21.407c4.914,5.688,10.656,10.014,17.066,12.855
			c6.383,2.825,13.473,4.26,21.066,4.26c9.725,0,18.797-2.47,26.961-7.342c8.209-4.9,14.809-12.522,19.621-22.648
			c4.748-10.006,7.154-22.412,7.154-36.882c0-13.395-2.211-25.203-6.574-35.104c-4.434-10.058-10.881-17.796-19.17-22.996
			C3517.598,108.89,3508.018,106.265,3497.379,106.265z"/>
		<path d="M3769.85,261.967c-3.963,0-7.121-1.361-9.652-4.159c-2.572-2.842-3.875-7.348-3.875-13.389v-123.1
			c0-1.459-1.086-2.689-2.535-2.869c-0.119-0.015-0.24-0.021-0.357-0.021c-1.309,0-2.475,0.887-2.801,2.186l-28.584,113.613
			c-1.846,7.284-3.355,12.672-4.498,16.007c-1.01,2.962-2.928,5.726-5.701,8.214c-2.6,2.333-6.369,3.519-11.207,3.519
			c-3.646,0-6.734-0.774-9.174-2.301c-2.502-1.565-4.463-3.574-5.832-5.973c-1.498-2.619-2.691-5.564-3.551-8.749
			c-0.928-3.44-1.881-7.018-2.85-10.741l-28.58-113.589c-0.326-1.299-1.492-2.186-2.799-2.186c-0.121,0-0.238,0.007-0.359,0.021
			c-1.447,0.18-2.535,1.41-2.535,2.869v123.1c0,6.045-1.289,10.555-3.83,13.402c-2.486,2.79-5.738,4.146-9.943,4.146
			c-4.061,0-7.262-1.345-9.787-4.111c-2.568-2.794-3.867-7.315-3.867-13.437V103.316c0-6.727,1.613-11.218,4.797-13.353
			c3.551-2.379,8.537-3.585,14.816-3.585h11.191c6.33,0,10.898,0.544,13.578,1.616c2.354,0.94,4.053,2.607,5.203,5.099
			c1.383,2.992,3.002,8.026,4.814,14.968l25.912,97.687c0.338,1.268,1.484,2.149,2.795,2.149c1.313,0,2.457-0.882,2.795-2.149
			l25.908-97.677c1.816-6.941,3.438-11.979,4.818-14.98c1.146-2.486,2.85-4.154,5.199-5.094c2.686-1.074,7.256-1.618,13.586-1.618
			h11.193c6.273,0,11.256,1.206,14.809,3.586c3.186,2.136,4.801,6.628,4.801,13.352v141.103c0,6.049-1.287,10.559-3.826,13.402
			C3777.43,260.611,3774.137,261.967,3769.85,261.967z"/>
	</g>
	<g>
		<path d="M2141.223,284.278c0,8.577-6.95,15.527-15.532,15.527h-42.313c-8.573,0-15.532-6.95-15.532-15.527
			c0-8.572,6.959-15.531,15.532-15.531h42.313C2134.272,268.747,2141.223,275.706,2141.223,284.278z"/>
		<g>
			<path d="M2264.023,126.045c-2.467-6.51-6.003-12.495-10.383-17.745c-2.727-3.266-5.781-6.244-9.115-8.889
				c-10.6-8.42-24.008-13.443-38.587-13.443h-214.16c-8.576,0-15.527,6.955-15.527,15.532c0,8.574,6.951,15.526,15.527,15.526
				h219.884c6.405,0,12.203,2.586,16.417,6.768l0.175-0.254c0.928,1.139,1.801,2.332,2.595,3.573
				c0.012,0.01,0.022,0.026,0.033,0.043c0.695,1.01,1.306,2.072,1.834,3.188l0.033,0.066c2.715,5.299,4.248,11.305,4.248,17.674
				c0,6.282-1.492,12.218-4.142,17.464c-0.011,0.018-0.017,0.033-0.021,0.044c-0.701,1.549-1.563,3.007-2.568,4.349
				c-0.011,0.017-0.021,0.034-0.033,0.045c-4.251,5.654-11.015,9.315-18.633,9.315h-162.081c-8.576,0-15.532,6.955-15.532,15.531
				s6.956,15.527,15.532,15.527h157.633l0.123-0.178c18.015-0.378,34.146-8.43,45.246-21.021
				c9.666-10.945,15.53-25.328,15.53-41.076C2268.051,140.324,2266.624,132.894,2264.023,126.045z"/>
			<path d="M2230.266,169.941c0.944-1.386,1.801-2.838,2.568-4.349L2230.266,169.941z"/>
			<path d="M2232.716,130.345c-0.566-1.095-1.177-2.158-1.834-3.188L2232.716,130.345z"/>
			<path d="M2230.849,127.113c-0.821-1.192-1.749-2.305-2.77-3.319L2230.849,127.113z"/>
		</g>
	</g>
	<g>
		<g>
			<path d="M2606.501,363.015h28.302v8.006h-37.157v-70.375h8.855V363.015z"/>
			<path d="M2669.997,363.456c2.708,0,5.127-0.49,7.258-1.473c2.13-0.982,3.933-2.357,5.409-4.125
				c1.476-1.768,2.601-3.879,3.378-6.334c0.775-2.457,1.164-5.158,1.164-8.107v-42.771h8.81v42.771
				c0,4.064-0.601,7.828-1.802,11.299c-1.203,3.471-2.923,6.473-5.159,9.012c-2.237,2.537-4.969,4.525-8.194,5.965
				c-3.225,1.441-6.847,2.162-10.863,2.162c-4.018,0-7.639-0.721-10.863-2.162c-3.229-1.439-5.966-3.428-8.218-5.965
				c-2.254-2.539-3.979-5.541-5.181-9.012c-1.204-3.471-1.803-7.234-1.803-11.299v-42.771h8.809v42.727
				c0,2.945,0.389,5.646,1.165,8.104c0.776,2.453,1.9,4.564,3.376,6.332c1.478,1.77,3.288,3.15,5.435,4.152
				C2664.861,362.958,2667.288,363.456,2669.997,363.456z"/>
			<path d="M2756.772,300.646v3.535c0,1.113-0.319,2.162-0.959,3.141l-37.02,55.938h37.341v7.762H2707.2v-3.734
				c0-0.98,0.287-1.914,0.867-2.799l37.064-56.084h-36.198v-7.758H2756.772z"/>
			<path d="M2872.17,311.644c-0.271,0.492-0.561,0.859-0.866,1.107c-0.307,0.246-0.701,0.365-1.188,0.365
				c-0.52,0-1.119-0.275-1.805-0.834c-0.686-0.557-1.551-1.17-2.602-1.84c-1.049-0.67-2.313-1.285-3.789-1.842
				c-1.477-0.555-3.264-0.834-5.363-0.834c-1.977,0-3.729,0.287-5.249,0.859c-1.523,0.572-2.793,1.348-3.813,2.332
				c-1.021,0.982-1.791,2.135-2.307,3.463c-0.518,1.324-0.775,2.76-0.775,4.297c0,1.963,0.449,3.592,1.348,4.887
				c0.895,1.293,2.084,2.398,3.561,3.314c1.475,0.918,3.148,1.711,5.022,2.383c1.871,0.67,3.789,1.365,5.752,2.086
				c1.961,0.719,3.879,1.529,5.75,2.432c1.873,0.9,3.545,2.037,5.021,3.412c1.478,1.375,2.665,3.061,3.562,5.059
				c0.898,1.998,1.348,4.453,1.348,7.367c0,3.076-0.486,5.967-1.461,8.666c-0.975,2.703-2.396,5.051-4.271,7.049
				c-1.871,1.996-4.168,3.566-6.893,4.713c-2.723,1.146-5.818,1.721-9.287,1.721c-4.233,0-8.091-0.826-11.575-2.48
				s-6.459-3.887-8.924-6.705l2.555-4.516c0.244-0.361,0.541-0.666,0.893-0.91c0.348-0.246,0.736-0.369,1.164-0.369
				c0.639,0,1.369,0.369,2.189,1.107c0.82,0.736,1.85,1.545,3.082,2.43s2.723,1.695,4.475,2.432c1.75,0.736,3.887,1.105,6.415,1.105
				c2.1,0,3.971-0.313,5.613-0.934s3.037-1.496,4.178-2.629c1.141-1.129,2.016-2.479,2.625-4.051
				c0.607-1.57,0.912-3.322,0.912-5.256c0-2.127-0.449-3.871-1.346-5.229c-0.898-1.359-2.078-2.496-3.537-3.412
				c-1.463-0.918-3.129-1.695-5-2.334s-3.787-1.295-5.753-1.965c-1.963-0.672-3.881-1.449-5.752-2.332
				c-1.871-0.885-3.539-2.031-4.998-3.439c-1.461-1.406-2.641-3.166-3.539-5.281c-0.898-2.107-1.348-4.721-1.348-7.83
				c0-2.488,0.449-4.895,1.348-7.219s2.199-4.389,3.904-6.189c1.703-1.797,3.811-3.24,6.322-4.318
				c2.512-1.082,5.395-1.621,8.651-1.621c3.652,0,6.984,0.621,9.998,1.863c3.012,1.246,5.646,3.047,7.897,5.404L2872.17,311.644z"/>
			<path d="M2947.809,335.856c0,5.27-0.777,10.109-2.328,14.512c-1.553,4.404-3.744,8.193-6.572,11.367
				c-2.832,3.178-6.232,5.641-10.203,7.393c-3.971,1.754-8.361,2.629-13.168,2.629c-4.811,0-9.191-0.875-13.146-2.629
				c-3.957-1.752-7.35-4.215-10.18-7.393c-2.83-3.174-5.021-6.963-6.574-11.367c-1.553-4.402-2.328-9.242-2.328-14.512
				c0-5.271,0.775-10.109,2.328-14.514c1.553-4.4,3.744-8.199,6.574-11.393c2.83-3.191,6.223-5.672,10.18-7.441
				c3.955-1.768,8.336-2.648,13.146-2.648c4.807,0,9.197,0.881,13.168,2.648c3.971,1.77,7.371,4.25,10.203,7.441
				c2.828,3.193,5.02,6.992,6.572,11.393C2947.031,325.747,2947.809,330.585,2947.809,335.856z M2938.725,335.856
				c0-4.322-0.547-8.199-1.643-11.639c-1.098-3.438-2.648-6.344-4.656-8.719c-2.01-2.373-4.445-4.195-7.303-5.475
				c-2.861-1.275-6.057-1.918-9.586-1.918c-3.5,0-6.682,0.643-9.541,1.918c-2.859,1.279-5.303,3.102-7.326,5.475
				c-2.023,2.375-3.584,5.281-4.68,8.719c-1.096,3.439-1.643,7.316-1.643,11.639c0,4.32,0.547,8.193,1.643,11.617
				c1.096,3.418,2.656,6.316,4.68,8.689s4.467,4.191,7.326,5.451c2.859,1.262,6.041,1.891,9.541,1.891
				c3.529,0,6.725-0.629,9.586-1.891c2.857-1.26,5.293-3.078,7.303-5.451c2.008-2.373,3.559-5.271,4.656-8.689
				C2938.178,344.05,2938.725,340.177,2938.725,335.856z"/>
			<path d="M2993.205,348.062c0.318,0.867,0.629,1.742,0.934,2.627c0.305-0.916,0.623-1.793,0.961-2.627
				c0.334-0.836,0.713-1.678,1.139-2.531l22.139-43.264c0.396-0.754,0.807-1.213,1.232-1.377c0.426-0.162,1.033-0.244,1.828-0.244
				h6.525v70.375h-7.76v-51.713c0-0.688,0.016-1.424,0.047-2.211c0.029-0.787,0.074-1.586,0.137-2.408l-22.414,44.004
				c-0.762,1.473-1.826,2.211-3.195,2.211h-1.277c-1.369,0-2.436-0.738-3.195-2.211l-22.914-44.148
				c0.092,0.852,0.16,1.686,0.205,2.506c0.047,0.816,0.068,1.57,0.068,2.258v51.713h-7.76v-70.375h6.527
				c0.791,0,1.4,0.082,1.826,0.244c0.426,0.164,0.836,0.623,1.234,1.377l22.592,43.314
				C2992.512,346.366,2992.885,347.192,2993.205,348.062z"/>
			<path d="M3117.863,371.021h-8.855v-70.375h8.855V371.021z"/>
			<path d="M3167.287,348.062c0.32,0.867,0.633,1.742,0.936,2.627c0.305-0.916,0.625-1.793,0.959-2.627
				c0.338-0.836,0.717-1.678,1.143-2.531l22.139-43.264c0.395-0.754,0.805-1.213,1.232-1.377c0.428-0.162,1.035-0.244,1.826-0.244
				h6.529v70.375h-7.762v-51.713c0-0.688,0.014-1.424,0.047-2.211c0.029-0.787,0.074-1.586,0.137-2.408l-22.414,44.004
				c-0.76,1.473-1.826,2.211-3.195,2.211h-1.277c-1.369,0-2.436-0.738-3.193-2.211l-22.916-44.148
				c0.09,0.852,0.158,1.686,0.205,2.506c0.045,0.816,0.068,1.57,0.068,2.258v51.713h-7.762v-70.375h6.527
				c0.791,0,1.402,0.082,1.826,0.244c0.428,0.164,0.838,0.623,1.234,1.377l22.594,43.314
				C3166.596,346.366,3166.971,347.192,3167.287,348.062z"/>
			<path d="M3273.201,371.021h-6.846c-0.791,0-1.432-0.215-1.918-0.641c-0.488-0.426-0.852-0.965-1.096-1.619l-6.115-16.994h-29.354
				l-6.115,16.994c-0.215,0.588-0.578,1.111-1.096,1.572c-0.518,0.457-1.158,0.688-1.918,0.688h-6.848l26.156-70.375h8.992
				L3273.201,371.021z M3230.338,344.894h24.422l-10.271-28.629c-0.668-1.77-1.322-3.982-1.963-6.631
				c-0.334,1.34-0.662,2.574-0.979,3.705c-0.32,1.131-0.633,2.121-0.938,2.971L3230.338,344.894z"/>
			<path d="M3308.715,364.093c1.766,0,3.385-0.088,4.861-0.268c1.475-0.18,2.869-0.451,4.178-0.811
				c1.309-0.361,2.541-0.795,3.699-1.303c1.154-0.506,2.311-1.086,3.467-1.744V344.45h-10.135c-0.576,0-1.043-0.178-1.391-0.539
				c-0.35-0.361-0.525-0.803-0.525-1.328v-5.4h20.086v27.01c-1.643,1.277-3.355,2.389-5.137,3.34
				c-1.777,0.949-3.682,1.744-5.703,2.383c-2.025,0.637-4.195,1.113-6.508,1.422c-2.314,0.313-4.824,0.469-7.531,0.469
				c-4.746,0-9.1-0.877-13.055-2.629c-3.959-1.752-7.367-4.207-10.227-7.365c-2.861-3.16-5.09-6.949-6.688-11.369
				c-1.596-4.422-2.395-9.283-2.395-14.586c0-5.369,0.781-10.264,2.35-14.682c1.566-4.422,3.803-8.211,6.711-11.373
				c2.906-3.158,6.42-5.605,10.543-7.342c4.123-1.732,8.742-2.6,13.855-2.6c2.586,0,4.99,0.201,7.213,0.613
				c2.221,0.408,4.281,0.998,6.184,1.77c1.902,0.768,3.66,1.701,5.273,2.797s3.119,2.332,4.52,3.709l-2.51,4.318
				c-0.518,0.885-1.189,1.33-2.01,1.33c-0.488,0-1.02-0.182-1.596-0.545c-0.762-0.457-1.615-1.012-2.557-1.668
				c-0.945-0.654-2.096-1.283-3.447-1.889c-1.355-0.605-2.953-1.123-4.793-1.547c-1.844-0.428-4.025-0.643-6.553-0.643
				c-3.682,0-7.016,0.65-9.996,1.943c-2.984,1.293-5.523,3.143-7.623,5.547c-2.1,2.406-3.713,5.322-4.838,8.744
				c-1.129,3.422-1.688,7.26-1.688,11.516c0,4.451,0.584,8.422,1.756,11.908c1.172,3.488,2.822,6.441,4.953,8.863
				c2.129,2.426,4.656,4.275,7.576,5.553C3301.959,363.456,3305.186,364.093,3308.715,364.093z"/>
			<path d="M3386.861,300.646v7.758h-31.404v23.379h25.426v7.465h-25.426v24.012h31.404v7.762h-40.303v-70.375H3386.861z"/>
			<path d="M3432.896,348.062c0.32,0.867,0.633,1.742,0.936,2.627c0.305-0.916,0.625-1.793,0.959-2.627
				c0.334-0.836,0.715-1.678,1.141-2.531l22.139-43.264c0.396-0.754,0.807-1.213,1.234-1.377c0.424-0.162,1.031-0.244,1.826-0.244
				h6.525v70.375h-7.762v-51.713c0-0.688,0.018-1.424,0.047-2.211c0.031-0.787,0.078-1.586,0.137-2.408l-22.41,44.004
				c-0.762,1.473-1.826,2.211-3.197,2.211h-1.279c-1.367,0-2.434-0.738-3.193-2.211l-22.914-44.148
				c0.09,0.852,0.158,1.686,0.205,2.506c0.047,0.816,0.068,1.57,0.068,2.258v51.713h-7.762v-70.375h6.529
				c0.793,0,1.398,0.082,1.826,0.244c0.426,0.164,0.836,0.623,1.232,1.377l22.594,43.314
				C3432.205,346.366,3432.576,347.192,3432.896,348.062z"/>
		</g>
		<circle cx="3069.134" cy="354.267" r="7.884"/>
		<circle cx="2796.74" cy="354.267" r="7.884"/>
	</g>
</g>
</svg>
